<?xml version="1.0" encoding="UTF-8" standalone="no"?>
<!-- Created with Inkscape (http://www.inkscape.org/) -->

<svg
   xmlns:dc="http://purl.org/dc/elements/1.1/"
   xmlns:cc="http://creativecommons.org/ns#"
   xmlns:rdf="http://www.w3.org/1999/02/22-rdf-syntax-ns#"
   xmlns:svg="http://www.w3.org/2000/svg"
   xmlns="http://www.w3.org/2000/svg"
   xmlns:sodipodi="http://sodipodi.sourceforge.net/DTD/sodipodi-0.dtd"
   xmlns:inkscape="http://www.inkscape.org/namespaces/inkscape"
   width="60.409073"
   height="37.569912"
   id="svg9780"
   version="1.1"
   inkscape:version="0.48.4 r"
   sodipodi:docname="button_find.svg">
  <defs
     id="defs9782" />
  <sodipodi:namedview
     id="base"
     pagecolor="#ffffff"
     bordercolor="#666666"
     borderopacity="1.0"
     inkscape:pageopacity="0.0"
     inkscape:pageshadow="2"
     inkscape:zoom="2.8"
     inkscape:cx="22.909246"
     inkscape:cy="27.196617"
     inkscape:document-units="px"
     inkscape:current-layer="layer1"
     showgrid="false"
     fit-margin-top="0"
     fit-margin-left="0"
     fit-margin-right="0"
     fit-margin-bottom="0"
     inkscape:window-width="691"
     inkscape:window-height="480"
     inkscape:window-x="1197"
     inkscape:window-y="103"
     inkscape:window-maximized="0" />
  <metadata
     id="metadata9785">
    <rdf:RDF>
      <cc:Work
         rdf:about="">
        <dc:format>image/svg+xml</dc:format>
        <dc:type
           rdf:resource="http://purl.org/dc/dcmitype/StillImage" />
        <dc:title />
      </cc:Work>
    </rdf:RDF>
  </metadata>
  <g
     inkscape:label="Layer 1"
     inkscape:groupmode="layer"
     id="layer1"
     transform="translate(-567.45742,-571.1799)">
    <g
       transform="translate(431.94767,220.45981)"
       id="g3079">
      <rect
         x="135.50975"
         y="350.72009"
         width="60.409073"
         height="37.569912"
         id="rect7841-6-7-8"
         style="fill:#166600;fill-opacity:1" />
      <g
         id="g3063">
        <path
           d="m 154.34281,355.96604 c -3.16666,3.16666 -3.16666,8.30252 0,11.4702 3.16769,3.16667 8.30251,3.16667 11.47123,0 3.16768,-3.16768 3.16768,-8.30354 0,-11.4702 -3.16872,-3.16871 -8.30457,-3.16871 -11.47123,0 z m 10.36688,10.36382 c -2.55871,2.55871 -6.70485,2.55871 -9.26152,0 -2.55871,-2.55668 -2.55871,-6.70281 0,-9.26152 2.55667,-2.55667 6.70281,-2.55667 9.26152,0 2.55667,2.55973 2.55667,6.70484 0,9.26152 z"
           id="path7523-5-3"
           inkscape:connector-curvature="0"
           style="fill:#ffffff;stroke:#ffffff;stroke-width:0.43915188;stroke-miterlimit:4;stroke-opacity:1;stroke-dasharray:none" />
        <g
           id="g7525-9-8"
           transform="matrix(1.0234854,0,0,1.0234854,-36.442031,-290.25854)">
          <path
             d="m 196.862,641.851 -0.896,0.896 8.892,8.891 c 0.495,0.494 1.298,0.494 1.793,0 0.495,-0.495 0.495,-1.299 0,-1.793 l -8.892,-8.891 -0.897,0.897"
             id="path7527-6-4"
             inkscape:connector-curvature="0"
             style="fill:#ffffff" />
        </g>
      </g>
      <text
         sodipodi:linespacing="125%"
         id="text9013-1"
         y="386.59589"
         x="153.90948"
         style="font-size:10px;font-style:normal;font-weight:bold;line-height:125%;letter-spacing:0px;word-spacing:0px;fill:#ffffff;fill-opacity:1;stroke:none;font-family:Helvetica LT Std Black;-inkscape-font-specification:Helvetica LT Std Black"
         xml:space="preserve"><tspan
           y="386.59589"
           x="153.90948"
           id="tspan9015-6"
           sodipodi:role="line">Find</tspan></text>
    </g>
  </g>
</svg>
