<?xml version="1.0" encoding="UTF-8" standalone="no"?>
<!-- Created with Inkscape (http://www.inkscape.org/) -->

<svg
   xmlns:dc="http://purl.org/dc/elements/1.1/"
   xmlns:cc="http://creativecommons.org/ns#"
   xmlns:rdf="http://www.w3.org/1999/02/22-rdf-syntax-ns#"
   xmlns:svg="http://www.w3.org/2000/svg"
   xmlns="http://www.w3.org/2000/svg"
   xmlns:sodipodi="http://sodipodi.sourceforge.net/DTD/sodipodi-0.dtd"
   xmlns:inkscape="http://www.inkscape.org/namespaces/inkscape"
   width="60.409073"
   height="43.933872"
   id="svg9780"
   version="1.1"
   inkscape:version="0.48.4 r"
   sodipodi:docname="button_find.svg">
  <defs
     id="defs9782" />
  <sodipodi:namedview
     id="base"
     pagecolor="#ffffff"
     bordercolor="#666666"
     borderopacity="1.0"
     inkscape:pageopacity="0.0"
     inkscape:pageshadow="2"
     inkscape:zoom="0.98994949"
     inkscape:cx="200.48426"
     inkscape:cy="-3.3525877"
     inkscape:document-units="px"
     inkscape:current-layer="layer1"
     showgrid="false"
     fit-margin-top="0"
     fit-margin-left="0"
     fit-margin-right="0"
     fit-margin-bottom="0"
     inkscape:window-width="484"
     inkscape:window-height="480"
     inkscape:window-x="1386"
     inkscape:window-y="482"
     inkscape:window-maximized="0" />
  <metadata
     id="metadata9785">
    <rdf:RDF>
      <cc:Work
         rdf:about="">
        <dc:format>image/svg+xml</dc:format>
        <dc:type
           rdf:resource="http://purl.org/dc/dcmitype/StillImage" />
        <dc:title />
      </cc:Work>
    </rdf:RDF>
  </metadata>
  <g
     inkscape:label="Layer 1"
     inkscape:groupmode="layer"
     id="layer1"
     transform="translate(-600.49233,-569.77733)">
    <g
       id="g9671"
       transform="translate(391.76626,-157.5685)">
      <rect
         x="208.72607"
         y="727.34583"
         width="60.409073"
         height="43.933872"
         id="rect7841-6-0"
         style="fill:#0D6B51" />
      <g
         transform="matrix(1.1652977,0,0,1.1652977,17.588576,3.3107139)"
         id="g7519-4-4">
        <g
           id="g7521-0-1">
          <path
             style="fill:#ffffff"
             inkscape:connector-curvature="0"
             id="path7523-5-3"
             d="m 186.407,631.396 c -3.094,3.094 -3.094,8.112 0,11.207 3.095,3.094 8.112,3.094 11.208,0 3.095,-3.095 3.095,-8.113 0,-11.207 -3.096,-3.096 -8.114,-3.096 -11.208,0 z m 10.129,10.126 c -2.5,2.5 -6.551,2.5 -9.049,0 -2.5,-2.498 -2.5,-6.549 0,-9.049 2.498,-2.498 6.549,-2.498 9.049,0 2.498,2.501 2.498,6.551 0,9.049 z" />
          <g
             id="g7525-9-8">
            <path
               style="fill:#ffffff"
               inkscape:connector-curvature="0"
               id="path7527-6-4"
               d="m 196.862,641.851 -0.896,0.896 8.892,8.891 c 0.495,0.494 1.298,0.494 1.793,0 0.495,-0.495 0.495,-1.299 0,-1.793 l -8.892,-8.891 -0.897,0.897" />
          </g>
        </g>
        <g
           id="g7529-3-4">
          <path
             style="fill:none"
             inkscape:connector-curvature="0"
             id="path7531-4-6"
             d="m 186.698,627.198 h -3.121 v 4.59 h 4.375 c -0.096,-1.536 -0.513,-3.068 -1.254,-4.59 z" />
          <path
             style="fill:none"
             inkscape:connector-curvature="0"
             id="path7533-2-1"
             d="m 184.206,623.457 c -0.207,-0.028 -0.417,-0.05 -0.629,-0.063 v 2.657 h 2.502 c -0.518,-0.869 -1.143,-1.735 -1.873,-2.594 z" />
          <path
             style="fill:none"
             inkscape:connector-curvature="0"
             id="path7535-8-7"
             d="m 178.299,627.198 h -2.647 c -0.927,1.316 -1.511,2.889 -1.618,4.59 h 3.143 c 0.08,-1.413 0.409,-2.955 1.122,-4.59 z" />
          <path
             style="fill:none"
             inkscape:connector-curvature="0"
             id="path7537-8-4"
             d="m 180.297,623.79 c -1.41,0.445 -2.672,1.232 -3.688,2.261 h 2.247 c 0.394,-0.739 0.874,-1.493 1.441,-2.261 z" />
          <path
             style="fill:none"
             inkscape:connector-curvature="0"
             id="path7539-7-8"
             d="m 187.949,627.198 c 0.641,1.459 0.974,2.843 1.098,4.129 0.866,-0.454 1.815,-0.693 2.77,-0.723 -0.249,-1.248 -0.755,-2.401 -1.463,-3.406 h -2.405 z" />
          <path
             style="fill:none"
             inkscape:connector-curvature="0"
             id="path7541-5-2"
             d="m 189.395,626.051 c -0.941,-0.954 -2.096,-1.698 -3.382,-2.157 0.538,0.731 0.993,1.452 1.373,2.157 h 2.009 z" />
          <path
             style="fill:none"
             inkscape:connector-curvature="0"
             id="path7543-8-5"
             d="m 186.692,640.556 c -0.061,-0.088 -0.116,-0.176 -0.169,-0.266 -0.12,0.172 -0.238,0.333 -0.352,0.482 0.176,-0.066 0.349,-0.139 0.521,-0.216 z" />
          <path
             style="fill:none"
             inkscape:connector-curvature="0"
             id="path7545-1-6"
             d="m 183.577,641.331 c 0.222,-0.015 0.442,-0.037 0.661,-0.067 0.278,-0.282 0.989,-1.052 1.718,-2.198 -0.045,-0.129 -0.085,-0.26 -0.12,-0.393 h -2.259 v 2.658 z" />
          <path
             style="fill:none"
             inkscape:connector-curvature="0"
             id="path7547-2-9"
             d="m 183.577,637.526 h 2.059 c -0.134,-1.614 0.345,-3.27 1.432,-4.59 h -3.49 v 4.59 z" />
          <path
             style="fill:none"
             inkscape:connector-curvature="0"
             id="path7549-5-1"
             d="m 177.807,636.487 c -0.337,-1.02 -0.596,-2.217 -0.644,-3.551 h -3.13 c 0.107,1.701 0.691,3.274 1.618,4.59 h 2.548 c -0.14,-0.332 -0.272,-0.677 -0.392,-1.039 z" />
          <path
             style="fill:none"
             inkscape:connector-curvature="0"
             id="path7551-7-1"
             d="m 180.163,626.051 h 2.267 v -2.657 c -0.127,0.008 -0.253,0.018 -0.378,0.031 -0.739,0.871 -1.368,1.746 -1.889,2.626 z" />
          <path
             style="fill:none"
             inkscape:connector-curvature="0"
             id="path7553-4-4"
             d="m 176.609,638.673 c 0.982,0.996 2.194,1.762 3.549,2.214 -0.44,-0.575 -0.945,-1.321 -1.417,-2.214 h -2.132 z" />
          <path
             style="fill:none"
             inkscape:connector-curvature="0"
             id="path7555-4-5"
             d="m 178.309,631.788 h 4.12 v -4.59 h -2.883 c -0.733,1.52 -1.145,3.052 -1.237,4.59 z" />
          <path
             style="fill:none"
             inkscape:connector-curvature="0"
             id="path7557-4-9"
             d="m 182.021,641.296 c 0.136,0.016 0.271,0.027 0.408,0.035 v -2.658 h -2.372 c 0.806,1.378 1.65,2.302 1.964,2.623 z" />
          <path
             style="fill:none"
             inkscape:connector-curvature="0"
             id="path7559-4-1"
             d="m 178.883,636.083 c 0.167,0.513 0.362,0.994 0.571,1.443 h 2.975 v -4.59 h -4.13 c 0.047,1.047 0.241,2.097 0.584,3.147 z" />
          <path
             style="fill:#ffffff"
             inkscape:connector-curvature="0"
             id="path7561-4-9"
             d="m 186.171,640.772 c 0.113,-0.149 0.231,-0.311 0.352,-0.482 -0.235,-0.391 -0.425,-0.802 -0.567,-1.225 -0.729,1.146 -1.439,1.916 -1.718,2.198 -0.219,0.03 -0.439,0.053 -0.661,0.067 v -2.658 h 2.259 c -0.102,-0.377 -0.169,-0.76 -0.2,-1.146 h -2.059 v -4.59 h 3.49 c 0.131,-0.16 0.27,-0.314 0.42,-0.463 0.471,-0.472 0.998,-0.854 1.56,-1.146 -0.124,-1.286 -0.457,-2.67 -1.098,-4.129 h 2.404 c 0.708,1.005 1.214,2.158 1.463,3.406 0.394,-0.013 0.789,0.012 1.179,0.072 -0.805,-4.789 -4.978,-8.451 -9.992,-8.451 -5.588,0 -10.136,4.547 -10.136,10.137 0,5.59 4.548,10.137 10.136,10.137 1.59,0 3.096,-0.369 4.437,-1.025 -0.281,-0.287 -0.531,-0.595 -0.747,-0.918 -0.173,0.077 -0.346,0.15 -0.522,0.216 z m 3.224,-14.721 h -2.009 c -0.38,-0.705 -0.835,-1.426 -1.373,-2.157 1.286,0.459 2.441,1.203 3.382,2.157 z m -5.818,-2.657 c 0.212,0.014 0.422,0.035 0.629,0.063 0.73,0.859 1.355,1.725 1.873,2.594 h -2.502 v -2.657 z m 0,3.804 h 3.121 c 0.741,1.521 1.158,3.054 1.254,4.59 h -4.375 v -4.59 z m -3.28,-3.408 c -0.567,0.768 -1.047,1.521 -1.441,2.261 h -2.247 c 1.016,-1.029 2.278,-1.816 3.688,-2.261 z m -4.645,3.408 h 2.647 c -0.713,1.635 -1.042,3.177 -1.123,4.59 h -3.143 c 0.108,-1.701 0.692,-3.273 1.619,-4.59 z m 0,10.328 c -0.927,-1.315 -1.511,-2.889 -1.618,-4.59 h 3.13 c 0.048,1.334 0.307,2.531 0.644,3.551 0.12,0.361 0.252,0.707 0.393,1.039 h -2.549 z m 0.957,1.147 h 2.132 c 0.472,0.893 0.977,1.639 1.417,2.214 -1.355,-0.452 -2.567,-1.218 -3.549,-2.214 z m 5.82,2.658 c -0.138,-0.008 -0.272,-0.02 -0.408,-0.035 -0.314,-0.321 -1.158,-1.245 -1.964,-2.623 h 2.372 v 2.658 z m 0,-3.805 h -2.975 c -0.209,-0.449 -0.404,-0.931 -0.571,-1.443 -0.344,-1.05 -0.537,-2.1 -0.584,-3.146 h 4.13 v 4.589 z m 0,-5.738 h -4.12 c 0.092,-1.538 0.504,-3.07 1.237,-4.59 h 2.883 v 4.59 z m 0,-5.737 h -2.267 c 0.521,-0.88 1.15,-1.755 1.889,-2.626 0.125,-0.014 0.251,-0.023 0.378,-0.031 v 2.657 z" />
        </g>
      </g>
      <text
         sodipodi:linespacing="125%"
         id="text9013-1"
         y="768.32568"
         x="227.12581"
         style="font-size:10px;font-style:normal;font-weight:bold;line-height:125%;letter-spacing:0px;word-spacing:0px;fill:#ffffff;fill-opacity:1;stroke:none;font-family:Helvetica LT Std Black;-inkscape-font-specification:Helvetica LT Std Black"
         xml:space="preserve"><tspan
           y="768.32568"
           x="227.12581"
           id="tspan9015-6"
           sodipodi:role="line">Find</tspan></text>
    </g>
  </g>
</svg>
