<?xml version="1.0" encoding="UTF-8" standalone="no"?>
<!-- Created with Inkscape (http://www.inkscape.org/) -->

<svg
   xmlns:dc="http://purl.org/dc/elements/1.1/"
   xmlns:cc="http://creativecommons.org/ns#"
   xmlns:rdf="http://www.w3.org/1999/02/22-rdf-syntax-ns#"
   xmlns:svg="http://www.w3.org/2000/svg"
   xmlns="http://www.w3.org/2000/svg"
   xmlns:sodipodi="http://sodipodi.sourceforge.net/DTD/sodipodi-0.dtd"
   xmlns:inkscape="http://www.inkscape.org/namespaces/inkscape"
   width="50"
   height="50"
   id="svg9780"
   version="1.1"
   inkscape:version="0.48.4 r"
   sodipodi:docname="button_directions.svg">
  <defs
     id="defs9782" />
  <sodipodi:namedview
     id="base"
     pagecolor="#ffffff"
     bordercolor="#666666"
     borderopacity="1.0"
     inkscape:pageopacity="0.0"
     inkscape:pageshadow="2"
     inkscape:zoom="7.9195959"
     inkscape:cx="31.602436"
     inkscape:cy="24.34004"
     inkscape:document-units="px"
     inkscape:current-layer="layer1"
     showgrid="false"
     fit-margin-top="0"
     fit-margin-left="0"
     fit-margin-right="0"
     fit-margin-bottom="0"
     inkscape:window-width="1856"
     inkscape:window-height="1058"
     inkscape:window-x="56"
     inkscape:window-y="-8"
     inkscape:window-maximized="1"
     showguides="true"
     inkscape:guide-bbox="true" />
  <metadata
     id="metadata9785">
    <rdf:RDF>
      <cc:Work
         rdf:about="">
        <dc:format>image/svg+xml</dc:format>
        <dc:type
           rdf:resource="http://purl.org/dc/dcmitype/StillImage" />
        <dc:title />
      </cc:Work>
    </rdf:RDF>
  </metadata>
  <g
     inkscape:label="Layer 1"
     inkscape:groupmode="layer"
     id="layer1"
     transform="translate(-442.85608,-566.8349)">
    <g
       id="g3009">
      <rect
         x="442.85608"
         y="566.8349"
         width="50"
         height="50"
         id="rect7841-6-7-9"
         style="fill:#0D6B51;fill-opacity:1" />
      <g
         transform="matrix(0.85369167,0,0,0.85369167,64.043028,89.012177)"
         id="text8911"
         style="font-size:10px;font-style:normal;font-variant:normal;font-weight:900;font-stretch:normal;text-align:start;line-height:125%;letter-spacing:0px;word-spacing:0px;writing-mode:lr-tb;text-anchor:start;fill:#ffffff;fill-opacity:1;stroke:none;font-family:Helvetica LT Std Black;-inkscape-font-specification:'Helvetica LT Std Black, Heavy'">
        <path
           id="path3004"
           d="m 447.85374,609.62088 0.45,0 c 0.62415,-0.0146 1.07331,0.11459 1.34748,0.38749 0.27416,0.27292 0.40832,0.77708 0.40249,1.51248 -0.002,0.67583 -0.14792,1.16916 -0.43749,1.47999 -0.28959,0.31083 -0.71041,0.46416 -1.26248,0.45999 l -0.5,0 z m 0.73999,5.51993 c 1.16977,0.0131 2.09518,-0.27312 2.77622,-0.85874 0.68102,-0.58562 1.02893,-1.54935 1.04373,-2.89121 -0.0117,-1.18061 -0.34833,-2.05185 -1.00998,-2.61372 -0.66167,-0.56186 -1.57832,-0.84061 -2.74997,-0.83624 l -3.15996,0 0,7.19991 z"
           inkscape:connector-curvature="0" />
        <path
           id="path3006"
           d="m 455.31718,615.14081 0,-5.23993 -2.07997,0 0,5.23993 z m -2.07997,-5.90993 2.07997,0 0,-1.47998 -2.07997,0 z"
           inkscape:connector-curvature="0" />
        <path
           id="path3008"
           d="m 456.45752,615.14081 2.07998,0 0,-1.80998 c 2e-4,-0.55811 0.10728,-0.95436 0.32124,-1.18873 0.21396,-0.23437 0.53353,-0.34812 0.95874,-0.34125 0.0704,10e-4 0.14208,0.009 0.215,0.0225 0.0729,0.0137 0.14458,0.0263 0.215,0.0375 l 0,-2.07997 c -0.045,-0.006 -0.09,-0.0119 -0.135,-0.0188 -0.045,-0.007 -0.09,-0.0106 -0.135,-0.0112 -0.40333,-8.3e-4 -0.73666,0.0983 -0.99999,0.29749 -0.26333,0.19917 -0.46666,0.50334 -0.60999,0.91249 l -0.02,0 0,-1.05998 -1.88998,0 z"
           inkscape:connector-curvature="0" />
        <path
           id="path3010"
           d="m 462.76109,611.93085 c 0.002,-0.28291 0.0858,-0.50457 0.2525,-0.66499 0.16666,-0.16041 0.40583,-0.24208 0.71749,-0.245 0.2527,0.008 0.46728,0.0996 0.64374,0.275 0.17645,0.17542 0.26854,0.38708 0.27625,0.63499 z m 3.96995,1.05999 c 0.006,-0.96624 -0.26104,-1.74373 -0.80124,-2.33247 -0.5402,-0.58874 -1.29978,-0.89124 -2.27872,-0.90749 -0.85874,0.01 -1.56373,0.265 -2.11497,0.76499 -0.55124,0.5 -0.83624,1.18499 -0.85499,2.05497 0.0192,0.88332 0.30583,1.55665 0.85999,2.01998 0.55416,0.46332 1.26081,0.69665 2.11997,0.69999 0.63207,0.009 1.2229,-0.11667 1.77248,-0.3775 0.54957,-0.26083 0.9254,-0.71166 1.12748,-1.35248 l -1.98997,0 c -0.0775,0.15479 -0.185,0.2702 -0.3225,0.34624 -0.1375,0.0761 -0.29,0.11396 -0.45749,0.11375 -0.28354,-0.004 -0.52395,-0.0983 -0.72124,-0.28249 -0.19729,-0.18417 -0.30021,-0.43333 -0.30875,-0.74749 z"
           inkscape:connector-curvature="0" />
        <path
           id="path3012"
           d="m 473.23073,611.90085 c -0.0977,-0.76769 -0.41979,-1.31977 -0.96624,-1.65623 -0.54645,-0.33645 -1.18103,-0.50103 -1.90372,-0.49374 -0.88145,0.006 -1.59602,0.25187 -2.14372,0.73874 -0.54771,0.48687 -0.82978,1.18061 -0.84624,2.08122 0.019,0.8877 0.30603,1.56227 0.86124,2.02372 0.5552,0.46146 1.26477,0.69354 2.12872,0.69625 0.36728,8.3e-4 0.71519,-0.0383 1.04374,-0.1175 0.32853,-0.0792 0.62394,-0.20333 0.88623,-0.3725 0.26708,-0.17416 0.48541,-0.40083 0.655,-0.67999 0.16957,-0.27916 0.2779,-0.61582 0.32499,-1.00999 l -2.09997,0 c -0.0263,0.21188 -0.10125,0.39313 -0.225,0.54375 -0.12375,0.15062 -0.31875,0.22937 -0.58499,0.23624 -0.30479,-0.005 -0.53271,-0.12478 -0.68374,-0.35874 -0.15104,-0.23395 -0.22646,-0.55103 -0.22625,-0.95124 -0.0108,-0.33083 0.0433,-0.64665 0.1625,-0.94749 0.11916,-0.30082 0.36832,-0.46165 0.74749,-0.48249 0.22999,0 0.40999,0.07 0.53999,0.21 0.0654,0.065 0.11708,0.1425 0.155,0.23249 0.0379,0.09 0.0596,0.1925 0.065,0.3075 z"
           inkscape:connector-curvature="0" />
        <path
           id="path3014"
           d="m 477.67045,613.65083 -0.33,0 c -0.28083,0.003 -0.46166,-0.0454 -0.54249,-0.145 -0.0808,-0.0996 -0.11667,-0.26791 -0.1075,-0.50499 l 0,-1.89998 0.99999,0 0,-1.19998 -0.99999,0 0,-1.62998 -2.04997,0 0,1.62998 -0.76999,0 0,1.19998 0.73999,0 0,2.18997 c -0.0128,0.59543 0.0494,1.03456 0.18666,1.31739 0.13722,0.28284 0.42611,0.45679 0.86666,0.52185 0.44055,0.0651 1.10942,0.0686 2.00664,0.0107 z"
           inkscape:connector-curvature="0" />
        <path
           id="path3016"
           d="m 480.86406,615.14081 0,-5.23993 -2.07997,0 0,5.23993 z m -2.07997,-5.90993 2.07997,0 0,-1.47998 -2.07997,0 z"
           inkscape:connector-curvature="0" />
        <path
           id="path3018"
           d="m 484.83436,611.15086 c 0.27291,-0.006 0.48708,0.11375 0.64249,0.35999 0.15541,0.24626 0.23458,0.56625 0.2375,0.95999 -0.002,0.49229 -0.0825,0.8527 -0.24,1.08124 -0.1575,0.22854 -0.37749,0.34145 -0.65999,0.33874 -0.26937,0.003 -0.48562,-0.1102 -0.64874,-0.33874 -0.16312,-0.22854 -0.24687,-0.58895 -0.25125,-1.08124 -0.006,-0.31312 0.0585,-0.60686 0.19375,-0.88124 0.13521,-0.27436 0.37729,-0.42061 0.72624,-0.43874 z m -2.99996,1.42998 c 0.0192,0.89603 0.30583,1.57144 0.85999,2.02622 0.55416,0.45479 1.26081,0.6827 2.11997,0.68375 0.85915,0.003 1.56581,-0.2275 2.11998,-0.68999 0.55415,-0.4625 0.84081,-1.17249 0.85998,-2.12998 -0.009,-0.82644 -0.27604,-1.48352 -0.80124,-1.97122 -0.5252,-0.4877 -1.25478,-0.73728 -2.18872,-0.74874 -0.89811,0.004 -1.61435,0.24833 -2.14872,0.73249 -0.53437,0.48416 -0.80811,1.18332 -0.82124,2.09747 z"
           inkscape:connector-curvature="0" />
        <path
           id="path3020"
           d="m 488.64409,615.14081 2.07997,0 0,-2.66997 c -0.006,-0.33812 0.0487,-0.60186 0.165,-0.79124 0.11624,-0.18937 0.33124,-0.28561 0.64499,-0.28874 0.28853,0.008 0.48395,0.10667 0.58624,0.29499 0.10229,0.18834 0.1502,0.41667 0.14375,0.68499 l 0,2.76997 2.07997,0 0,-3.13996 c 0.002,-0.72374 -0.16417,-1.27873 -0.49749,-1.66498 -0.33333,-0.38624 -0.84416,-0.58124 -1.53248,-0.58499 -0.39,10e-4 -0.72499,0.084 -1.00499,0.24874 -0.28,0.1648 -0.53499,0.40521 -0.76499,0.72125 l 0,-0.81999 -1.89997,0 z"
           inkscape:connector-curvature="0" />
        <path
           id="path3022"
           d="m 495.17378,613.51083 c 0.0827,0.69103 0.38478,1.16394 0.90623,1.41873 0.52145,0.25479 1.09603,0.3752 1.72373,0.36125 0.95749,-0.008 1.66748,-0.17688 2.12997,-0.50625 0.46249,-0.32937 0.69249,-0.77061 0.69,-1.32373 -0.0172,-0.48043 -0.18964,-0.83642 -0.51718,-1.06796 -0.32756,-0.23153 -0.70682,-0.39595 -1.1378,-0.49327 -0.43099,-0.0973 -0.81026,-0.18486 -1.1378,-0.26265 -0.32755,-0.0778 -0.49994,-0.20315 -0.51718,-0.37609 0.002,-0.12916 0.0554,-0.22333 0.16,-0.2825 0.10458,-0.0592 0.24791,-0.0883 0.42999,-0.0875 0.0806,-2e-4 0.15687,0.0102 0.22875,0.0312 0.0719,0.0211 0.13562,0.054 0.19125,0.0987 0.0552,0.0446 0.0998,0.0979 0.13374,0.16 0.034,0.0621 0.056,0.13542 0.0663,0.22 l 1.88998,0 c -0.0896,-0.67687 -0.39542,-1.12561 -0.91749,-1.34624 -0.52208,-0.22061 -1.08291,-0.32186 -1.68248,-0.30374 -0.37376,-0.003 -0.74956,0.0468 -1.12739,0.15074 -0.37784,0.10395 -0.69512,0.28234 -0.95184,0.53517 -0.25673,0.25285 -0.3903,0.60087 -0.40074,1.04407 0.0167,0.49653 0.18391,0.8572 0.50156,1.08201 0.31765,0.22482 0.68546,0.37956 1.10342,0.46422 0.41796,0.0847 0.78577,0.16502 1.10343,0.24109 0.31765,0.0761 0.48483,0.21361 0.50155,0.41265 -0.007,0.18145 -0.0775,0.30604 -0.20999,0.37374 -0.13251,0.0677 -0.2825,0.0998 -0.45,0.0962 -0.10063,-4.1e-4 -0.19437,-0.0146 -0.28124,-0.0425 -0.0869,-0.0279 -0.16313,-0.0671 -0.22875,-0.1175 -0.0704,-0.055 -0.12459,-0.12249 -0.1625,-0.20249 -0.0379,-0.08 -0.0571,-0.1725 -0.0575,-0.2775 z"
           inkscape:connector-curvature="0" />
      </g>
      <path
         inkscape:connector-curvature="0"
         id="path9457"
         d="m 455.20156,597.88656 c 0.0256,-9.71476 2.9421,-14.21532 13.09764,-20.21105 1.73033,-1.02156 1.7363,-1.28827 0.0994,-4.45361 -0.95762,-1.85184 -1.28359,-3.36698 -0.72436,-3.36698 0.55921,0 4.61309,1.6389 9.00858,3.64199 l 7.99181,3.642 -1.90829,3.29309 c -1.04952,1.81119 -3.65725,5.24158 -5.79493,7.62306 l -3.88671,4.32996 -0.043,-4.45363 c -0.0236,-2.44949 -0.32389,-4.45362 -0.66722,-4.45362 -1.74678,0 -6.66584,3.78267 -7.60795,5.85036 -0.59148,1.29815 -1.3999,5.22847 -1.79652,8.73405 l -0.7211,6.37382 -3.53235,0 -3.53233,0 0.0172,-6.54945 z"
         style="fill:#ffffff" />
    </g>
  </g>
</svg>
