<?xml version="1.0" encoding="UTF-8" standalone="no"?>
<!-- Created with Inkscape (http://www.inkscape.org/) -->

<svg
   xmlns:dc="http://purl.org/dc/elements/1.1/"
   xmlns:cc="http://creativecommons.org/ns#"
   xmlns:rdf="http://www.w3.org/1999/02/22-rdf-syntax-ns#"
   xmlns:svg="http://www.w3.org/2000/svg"
   xmlns="http://www.w3.org/2000/svg"
   xmlns:sodipodi="http://sodipodi.sourceforge.net/DTD/sodipodi-0.dtd"
   xmlns:inkscape="http://www.inkscape.org/namespaces/inkscape"
   width="50"
   height="50"
   id="svg9780"
   version="1.1"
   inkscape:version="0.91pre3 r13670"
   sodipodi:docname="button_find.svg">
  <defs
     id="defs9782" />
  <sodipodi:namedview
     id="base"
     pagecolor="#ffffff"
     bordercolor="#666666"
     borderopacity="1.0"
     inkscape:pageopacity="0.0"
     inkscape:pageshadow="2"
     inkscape:zoom="2.8"
     inkscape:cx="69.93706"
     inkscape:cy="35.498151"
     inkscape:document-units="px"
     inkscape:current-layer="layer1"
     showgrid="false"
     fit-margin-top="0"
     fit-margin-left="0"
     fit-margin-right="0"
     fit-margin-bottom="0"
     inkscape:window-width="1920"
     inkscape:window-height="1018"
     inkscape:window-x="-8"
     inkscape:window-y="-8"
     inkscape:window-maximized="1" />
  <metadata
     id="metadata9785">
    <rdf:RDF>
      <cc:Work
         rdf:about="">
        <dc:format>image/svg+xml</dc:format>
        <dc:type
           rdf:resource="http://purl.org/dc/dcmitype/StillImage" />
        <dc:title />
      </cc:Work>
    </rdf:RDF>
  </metadata>
  <g
     inkscape:label="Layer 1"
     inkscape:groupmode="layer"
     id="layer1"
     transform="translate(-567.4574,-558.74984)">
    <rect
       style="fill:#0d6b51;fill-opacity:1"
       id="rect7841-6-7-8"
       height="50"
       width="50"
       y="558.74982"
       x="567.4574" />
    <g
       id="g3063"
       transform="matrix(1.3664923,0,0,1.3664923,369.79141,78.452435)">
      <path
         style="fill:#ffffff;stroke:#ffffff;stroke-width:0.43915188;stroke-miterlimit:4;stroke-dasharray:none;stroke-opacity:1"
         inkscape:connector-curvature="0"
         id="path7523-5-3"
         d="m 154.34281,355.96604 c -3.16666,3.16666 -3.16666,8.30252 0,11.4702 3.16769,3.16667 8.30251,3.16667 11.47123,0 3.16768,-3.16768 3.16768,-8.30354 0,-11.4702 -3.16872,-3.16871 -8.30457,-3.16871 -11.47123,0 z m 10.36688,10.36382 c -2.55871,2.55871 -6.70485,2.55871 -9.26152,0 -2.55871,-2.55668 -2.55871,-6.70281 0,-9.26152 2.55667,-2.55667 6.70281,-2.55667 9.26152,0 2.55667,2.55973 2.55667,6.70484 0,9.26152 z" />
      <g
         transform="matrix(1.0234854,0,0,1.0234854,-36.442031,-290.25854)"
         id="g7525-9-8">
        <path
           style="fill:#ffffff"
           inkscape:connector-curvature="0"
           id="path7527-6-4"
           d="m 196.862,641.851 -0.896,0.896 8.892,8.891 c 0.495,0.494 1.298,0.494 1.793,0 0.495,-0.495 0.495,-1.299 0,-1.793 l -8.892,-8.891 -0.897,0.897" />
      </g>
    </g>
    <text
       xml:space="preserve"
       style="font-style:normal;font-weight:normal;font-size:16.25691795px;line-height:125%;font-family:sans-serif;letter-spacing:0px;word-spacing:0px;fill:#ffffff;fill-opacity:1;stroke:none;stroke-width:1px;stroke-linecap:butt;stroke-linejoin:miter;stroke-opacity:1;"
       x="579.97858"
       y="606.85199"
       id="text3344"
       sodipodi:linespacing="125%"><tspan
         sodipodi:role="line"
         id="tspan3346"
         x="579.97858"
         y="606.85199"
         style="font-style:normal;font-variant:normal;font-weight:bold;font-stretch:ultra-condensed;font-family:Antonio;-inkscape-font-specification:'Antonio Bold Ultra-Condensed';fill:#ffffff;">Find</tspan></text>
  </g>
</svg>
