<?xml version="1.0" encoding="utf-8"?>
<!-- Generator: Adobe Illustrator 16.0.0, SVG Export Plug-In . SVG Version: 6.00 Build 0)  -->
<!DOCTYPE svg PUBLIC "-//W3C//DTD SVG 1.1//EN" "http://www.w3.org/Graphics/SVG/1.1/DTD/svg11.dtd">
<svg version="1.1"
	 id="svg9780" xmlns:sodipodi="http://sodipodi.sourceforge.net/DTD/sodipodi-0.dtd" xmlns:inkscape="http://www.inkscape.org/namespaces/inkscape" xmlns:cc="http://creativecommons.org/ns#" xmlns:dc="http://purl.org/dc/elements/1.1/" xmlns:svg="http://www.w3.org/2000/svg" xmlns:rdf="http://www.w3.org/1999/02/22-rdf-syntax-ns#" inkscape:version="0.48.4 r" sodipodi:docname="directions_bus.svg"
	 xmlns="http://www.w3.org/2000/svg" xmlns:xlink="http://www.w3.org/1999/xlink" x="0px" y="0px" width="51px" height="51px"
	 viewBox="0 0 51 51" enable-background="new 0 0 51 51" xml:space="preserve">
<sodipodi:namedview  id="base" fit-margin-left="0" fit-margin-top="0" fit-margin-bottom="0" inkscape:document-units="px" fit-margin-right="0" inkscape:window-width="484" inkscape:window-height="480" inkscape:window-maximized="0" inkscape:pageopacity="0.0" inkscape:window-y="482" inkscape:current-layer="layer1" inkscape:window-x="1386" inkscape:pageshadow="2" bordercolor="#666666" inkscape:cx="35.431206" borderopacity="1.0" pagecolor="#ffffff" inkscape:cy="-5.2008684" showgrid="false" inkscape:zoom="1.979899">
	</sodipodi:namedview>
<path id="path6562-7_1_" inkscape:connector-curvature="0" opacity="0" fill="#FFFFFF" d="M51,36.152
	c0,8.035-5.803,14.549-12.956,14.549H14.68c-7.156,0-12.956-6.514-12.956-14.549V15.972c0-8.034,5.8-14.548,12.956-14.548h23.364
	C45.197,1.424,51,7.937,51,15.972V36.152z"/>
<path id="path6562-7" inkscape:connector-curvature="0" fill="#6CB13D" d="M50.014,35.166c0,8.033-5.802,14.549-12.957,14.549
	H13.693c-7.156,0-12.957-6.514-12.957-14.549V14.985c0-8.035,5.801-14.548,12.957-14.548h23.363c7.155,0,12.957,6.512,12.957,14.548
	V35.166z"/>
<path id="path7195-9" inkscape:connector-curvature="0" fill="#FFFFFF" d="M12.276,41.147c-0.663-0.114-1.354-0.608-1.81-1.296
	c-0.4-0.601-0.402-0.614-0.402-2.836v-1.961H8.688H7.313v-5.587V23.88l0.143-0.36c0.198-0.497,0.503-0.935,0.988-1.417
	c0.35-0.347,0.473-0.433,0.814-0.561c0.497-0.188,0.982-0.427,1.06-0.522c0.032-0.04,0.73-1.771,1.552-3.848
	c0.821-2.077,1.589-3.959,1.705-4.183c0.616-1.184,1.698-2.097,2.682-2.261c0.259-0.043,2.915-0.056,9.371-0.044
	c10.003,0.019,9.124-0.015,9.857,0.376c0.396,0.211,1.147,0.907,1.47,1.361c0.301,0.425,0.324,0.482,1.916,4.562
	c0.746,1.914,1.4,3.579,1.454,3.7c0.12,0.272,0.347,0.488,0.597,0.568c0.379,0.122,0.839,0.332,1.064,0.487
	c0.555,0.381,1.178,1.179,1.42,1.814c0.27,0.707,0.263,0.56,0.265,6.201l0.002,5.3h-1.367c-1.242,0-1.375,0.01-1.454,0.097
	c-0.076,0.084-0.089,0.356-0.103,2.198l-0.017,2.103l-0.157,0.285c-0.535,0.966-1.852,1.591-2.979,1.414
	c-0.679-0.106-1.559-0.62-1.93-1.126c-0.38-0.519-0.379-0.507-0.409-2.813l-0.027-2.076h-9.783h-9.782l-0.015,1.51
	c-0.013,1.289-0.031,1.582-0.125,1.996c-0.315,1.395-0.953,2.214-1.901,2.443C13.257,41.176,12.608,41.205,12.276,41.147
	L12.276,41.147z M13.554,29.148c0.857-0.255,1.599-1.07,1.798-1.977c0.092-0.418,0.043-1.13-0.104-1.512
	c-0.457-1.188-1.551-1.853-2.76-1.676c-0.972,0.142-1.69,0.831-1.961,1.881c-0.367,1.422,0.462,3.007,1.728,3.304
	C12.588,29.247,13.257,29.236,13.554,29.148L13.554,29.148z M38.875,29.076c0.333-0.13,0.786-0.49,1.049-0.836
	c0.641-0.837,0.742-1.962,0.266-2.903c-0.072-0.142-0.279-0.417-0.461-0.611c-1.15-1.229-3.08-0.968-3.962,0.538
	c-0.409,0.698-0.442,1.728-0.081,2.491c0.178,0.376,0.679,0.937,1.012,1.132c0.131,0.076,0.376,0.185,0.545,0.24
	C37.662,29.266,38.449,29.24,38.875,29.076L38.875,29.076z M37.281,20.935c-0.02-0.052-0.543-1.458-1.162-3.125
	c-0.619-1.667-1.187-3.15-1.26-3.295c-0.158-0.31-0.49-0.76-0.647-0.875c-0.286-0.21-0.187-0.208-8.8-0.211
	c-9.531-0.003-8.574-0.056-9.068,0.499c-0.281,0.314-0.437,0.713-2.619,6.685l-0.153,0.418h11.874
	C36.731,21.029,37.316,21.025,37.281,20.935L37.281,20.935z"/>
</svg>
