<?xml version="1.0" encoding="utf-8"?>
<!-- Generator: Adobe Illustrator 16.0.0, SVG Export Plug-In . SVG Version: 6.00 Build 0)  -->
<!DOCTYPE svg PUBLIC "-//W3C//DTD SVG 1.1//EN" "http://www.w3.org/Graphics/SVG/1.1/DTD/svg11.dtd">
<svg version="1.1"
	 id="svg9780" xmlns:sodipodi="http://sodipodi.sourceforge.net/DTD/sodipodi-0.dtd" xmlns:inkscape="http://www.inkscape.org/namespaces/inkscape" xmlns:cc="http://creativecommons.org/ns#" xmlns:dc="http://purl.org/dc/elements/1.1/" xmlns:svg="http://www.w3.org/2000/svg" xmlns:rdf="http://www.w3.org/1999/02/22-rdf-syntax-ns#" inkscape:version="0.48.4 r" sodipodi:docname="button_radar.svg"
	 xmlns="http://www.w3.org/2000/svg" xmlns:xlink="http://www.w3.org/1999/xlink" x="0px" y="0px" width="51px" height="51px"
	 viewBox="0 0 51 51" enable-background="new 0 0 51 51" xml:space="preserve">
<path id="path6562_1_" inkscape:connector-curvature="0" opacity="0.5" enable-background="new    " d="M50.749,36.27
	c0,7.996-5.774,14.479-12.897,14.479H14.597C7.474,50.749,1.7,44.268,1.7,36.27V16.18c0-7.999,5.774-14.482,12.897-14.482h23.254
	c7.123,0,12.897,6.482,12.897,14.482V36.27z"/>
<sodipodi:namedview  id="base" fit-margin-left="0" fit-margin-top="0" fit-margin-bottom="0" inkscape:document-units="px" fit-margin-right="0" inkscape:window-width="484" inkscape:window-height="480" inkscape:window-maximized="0" inkscape:pageopacity="0.0" inkscape:window-y="482" inkscape:current-layer="layer1" inkscape:window-x="1386" inkscape:pageshadow="2" bordercolor="#666666" inkscape:cx="27.329437" borderopacity="1.0" pagecolor="#ffffff" inkscape:cy="11.716662" showgrid="false" inkscape:zoom="2.8">
	</sodipodi:namedview>
<path id="path6562" inkscape:connector-curvature="0" fill="#004E41" d="M49.534,35.055c0,7.997-5.775,14.48-12.897,14.48H13.382
	c-7.124,0-12.897-6.482-12.897-14.48V14.967c0-7.999,5.773-14.482,12.897-14.482h23.255c7.121,0,12.896,6.482,12.896,14.482
	L49.534,35.055L49.534,35.055z"/>
<g id="g7048" transform="translate(44.082839,423.90902)">
	<g id="g7050">
		<path id="path7052" inkscape:connector-curvature="0" fill="#FFFFFF" d="M-15.541-414.033c0.601,1.43-0.122,3.1-1.613,3.727
			c-1.492,0.628-3.192-0.022-3.796-1.451c-0.601-1.432,0.125-3.1,1.616-3.731C-17.843-416.113-16.141-415.466-15.541-414.033z"/>
		<path id="path7054" inkscape:connector-curvature="0" fill="#FFFFFF" d="M-32.597-397.192c-4.056,1.706-6.002,6.303-4.333,10.269
			c1.666,3.959,6.312,5.786,10.369,4.079c4.064-1.709,6.002-6.305,4.336-10.266C-23.891-397.074-28.533-398.903-32.597-397.192z
			 M-27.315-384.639c-3.044,1.28-6.527-0.092-7.776-3.06c-1.251-2.97,0.202-6.42,3.248-7.7c3.047-1.283,6.532,0.092,7.783,3.063
			C-22.81-389.368-24.266-385.925-27.315-384.639L-27.315-384.639z"/>
		<path id="path7056" inkscape:connector-curvature="0" fill="#FFFFFF" d="M-11.583-397.059c-4.063,1.709-6.003,6.303-4.336,10.27
			c1.666,3.958,6.31,5.787,10.371,4.079c4.059-1.707,5.998-6.31,4.334-10.269C-2.882-396.941-7.522-398.767-11.583-397.059z
			 M-6.3-384.505c-3.051,1.279-6.532-0.094-7.781-3.063c-1.251-2.971,0.207-6.413,3.252-7.698c3.043-1.277,6.527,0.092,7.779,3.062
			C-1.802-389.236-3.257-385.786-6.3-384.505z"/>
		<path id="path7058" inkscape:connector-curvature="0" fill="#FFFFFF" d="M-11.279-404.236c-0.034,0.005-0.062,0.024-0.091,0.036
			c0.533,0.484,0.751,1.153,0.467,1.642c-0.257,0.453-0.854,0.619-1.48,0.479l-7.725,2.484l-4.734,1.532l-0.353,0.111
			c-0.024,0.008-0.048,0.024-0.077,0.037c-0.071,0.02-0.137,0.061-0.171,0.122l-4.372,7.487l-0.075,0.026
			c-0.071,0.024-0.097,0.14-0.083,0.274c-0.035,0.111,0.012,0.236,0.115,0.333c0.082,0.135,0.188,0.215,0.267,0.185l5.508-2.078
			c0.029-0.015,0.049-0.033,0.068-0.067c0.04-0.02,0.081-0.035,0.117-0.068l3.425-2.729l3.096-2.465l5.692-4.539
			c0.084-0.066,0.217-0.094,0.217-0.094l2.193,11.193c0.059,0.298,0.387,0.484,0.745,0.416c0.354-0.068,0.593-0.36,0.532-0.665
			l-2.541-13.228C-10.596-404.115-10.929-404.304-11.279-404.236L-11.279-404.236z M-17.595-397.722l-2.935,2.34l-3.793,3.025
			c-0.022-0.005-0.039-0.007-0.059,0l-4.281,1.612l3.791-6.5l1.058-0.339l4.736-1.524l5.408-1.744L-17.595-397.722L-17.595-397.722z
			"/>
		<g id="g7060">
			<path id="path7062" inkscape:connector-curvature="0" fill="#FFFFFF" d="M-20.162-389.196c0.059,0.985,0.827,1.74,1.719,1.688
				c0.888-0.053,1.558-0.895,1.505-1.875l-0.438-7.512l-3.096,2.465L-20.162-389.196z"/>
			<path id="path7064" inkscape:connector-curvature="0" fill="#FFFFFF" d="M-18.629-398.896l-0.449-0.209l-4.736,1.524l3.249,1.531
				l0.036,0.669l2.935-2.341c-0.022-0.047-0.039-0.098-0.062-0.139C-17.823-398.294-18.16-398.672-18.629-398.896L-18.629-398.896z"
				/>
			<path id="path7066" inkscape:connector-curvature="0" fill="#FFFFFF" d="M-11.37-404.2c-0.125-0.106-0.25-0.209-0.402-0.299
				l-9.134-5.248c-0.818-0.472-1.765-0.373-2.108,0.228c-0.156,0.279-1.472,1.974-2.083,2.808l-1.621,2.213
				c-0.961,1.31-1.39,2.74-1.25,3.819c-0.006,0.662,0.401,1.328,1.088,1.651l2.037,0.964l4.734-1.532l-2.888-1.357
				c0.146-0.166,0.289-0.329,0.422-0.507l1.622-2.215c0.616-0.838,1.003-1.728,1.176-2.541l6.765,3.887
				c0.203,0.117,0.416,0.205,0.629,0.248c0.629,0.14,1.226-0.026,1.481-0.479C-10.619-403.047-10.837-403.716-11.37-404.2
				L-11.37-404.2z"/>
		</g>
	</g>
</g>
</svg>
