<?xml version="1.0" encoding="UTF-8" standalone="no"?>
<!-- Created with Inkscape (http://www.inkscape.org/) -->

<svg
   xmlns:dc="http://purl.org/dc/elements/1.1/"
   xmlns:cc="http://creativecommons.org/ns#"
   xmlns:rdf="http://www.w3.org/1999/02/22-rdf-syntax-ns#"
   xmlns:svg="http://www.w3.org/2000/svg"
   xmlns="http://www.w3.org/2000/svg"
   xmlns:sodipodi="http://sodipodi.sourceforge.net/DTD/sodipodi-0.dtd"
   xmlns:inkscape="http://www.inkscape.org/namespaces/inkscape"
   width="51"
   height="51"
   id="svg9780"
   version="1.1"
   inkscape:version="0.48.4 r"
   sodipodi:docname="directions_bus.svg">
  <defs
     id="defs9782" />
  <sodipodi:namedview
     id="base"
     pagecolor="#ffffff"
     bordercolor="#666666"
     borderopacity="1.0"
     inkscape:pageopacity="0.0"
     inkscape:pageshadow="2"
     inkscape:zoom="1.979899"
     inkscape:cx="35.431206"
     inkscape:cy="-5.2008684"
     inkscape:document-units="px"
     inkscape:current-layer="layer1"
     showgrid="false"
     fit-margin-top="0"
     fit-margin-left="0"
     fit-margin-right="0"
     fit-margin-bottom="0"
     inkscape:window-width="484"
     inkscape:window-height="480"
     inkscape:window-x="1386"
     inkscape:window-y="482"
     inkscape:window-maximized="0" />
  <metadata
     id="metadata9785">
    <rdf:RDF>
      <cc:Work
         rdf:about="">
        <dc:format>image/svg+xml</dc:format>
        <dc:type
           rdf:resource="http://purl.org/dc/dcmitype/StillImage" />
        <dc:title></dc:title>
      </cc:Work>
    </rdf:RDF>
  </metadata>
  <g
     inkscape:label="Layer 1"
     inkscape:groupmode="layer"
     id="layer1"
     transform="translate(-709.60503,-548.95903)">
    <g
       id="g7561"
       transform="translate(489.63628,179.95903)">
      <path
         style="fill:#ac8e58;fill-opacity:1;stroke:#000000;stroke-width:1;stroke-miterlimit:10"
         inkscape:connector-curvature="0"
         id="path6447-9-4"
         d="m 270.46171,404.73151 c 0,8.15301 -5.886,14.76201 -13.147,14.76201 l -23.706,0 c -7.261,0 -13.147,-6.60801 -13.147,-14.76201 l 0,-20.47699 c 0,-8.15301 5.886,-14.76201 13.147,-14.76201 l 23.706,0 c 7.261,0 13.147,6.608 13.147,14.76201 l 0,20.47699 z"
         stroke-miterlimit="10" />
      <path
         inkscape:connector-curvature="0"
         id="path7195-9"
         d="m 232.24472,409.71013 c -0.66338,-0.11458 -1.35339,-0.60837 -1.81032,-1.29569 -0.39956,-0.60102 -0.4015,-0.6148 -0.4015,-2.83613 l 0,-1.96049 -1.37564,0 -1.37565,0 0,-5.58777 0,-5.58777 0.1431,-0.35986 c 0.19772,-0.49719 0.50295,-0.93484 0.98796,-1.41652 0.34956,-0.34719 0.4731,-0.43234 0.81387,-0.561 0.49678,-0.18756 0.98248,-0.4269 1.05995,-0.52232 0.0321,-0.0396 0.73058,-1.77116 1.55222,-3.8481 0.82163,-2.07696 1.58906,-3.95938 1.70538,-4.18315 0.61559,-1.18428 1.69819,-2.09695 2.68197,-2.26099 0.25892,-0.0433 2.91526,-0.0556 9.37048,-0.0436 10.00332,0.0185 9.12472,-0.0149 9.85776,0.37575 0.39619,0.21116 1.14728,0.90718 1.46902,1.3613 0.30148,0.42552 0.32532,0.48228 1.91626,4.56184 0.74631,1.91375 1.40078,3.57892 1.45437,3.70037 0.12024,0.27253 0.34666,0.48843 0.59609,0.56842 0.37971,0.12178 0.83959,0.33212 1.0647,0.48702 0.55435,0.38138 1.17867,1.17892 1.42046,1.81451 0.26883,0.70668 0.26256,0.55987 0.26461,6.20158 l 0.002,5.30026 -1.36727,0 c -1.24224,0 -1.37524,0.009 -1.45416,0.0961 -0.0761,0.0842 -0.0889,0.35595 -0.1027,2.19832 l -0.0159,2.10235 -0.15796,0.28513 c -0.5353,0.96622 -1.85172,1.59116 -2.97829,1.41392 -0.67827,-0.10673 -1.55867,-0.6203 -1.92965,-1.12567 -0.38065,-0.51854 -0.37893,-0.50677 -0.4093,-2.81216 l -0.0274,-2.07696 -9.78245,0 -9.78245,0 -0.0147,1.51052 c -0.0125,1.28799 -0.031,1.58202 -0.12459,1.99602 -0.31525,1.39401 -0.95276,2.21327 -1.90143,2.4435 -0.36766,0.0892 -1.01626,0.11873 -1.34866,0.0614 z m 1.2784,-11.99963 c 0.8566,-0.25439 1.59906,-1.07027 1.79801,-1.9758 0.0919,-0.41821 0.043,-1.13043 -0.10375,-1.51179 -0.45719,-1.18822 -1.55126,-1.85291 -2.75994,-1.67674 -0.97225,0.1417 -1.69056,0.83074 -1.96149,1.88152 -0.36675,1.42246 0.46185,3.00661 1.72811,3.30388 0.33274,0.0782 1.00158,0.0673 1.29903,-0.0211 z m 25.32065,-0.0724 c 0.33285,-0.12915 0.78617,-0.48974 1.04951,-0.8348 0.63926,-0.83762 0.74196,-1.96234 0.26511,-2.90336 -0.072,-0.14186 -0.2793,-0.41678 -0.46095,-0.61096 -1.15014,-1.22951 -3.07981,-0.96746 -3.9621,0.53805 -0.40911,0.69811 -0.44275,1.72729 -0.0813,2.49135 0.17782,0.37596 0.67911,0.93633 1.01237,1.13163 0.13048,0.0764 0.37567,0.18462 0.54484,0.24037 0.41948,0.1382 1.20672,0.11296 1.63263,-0.0522 z m -1.59317,-8.14086 c -0.0203,-0.0519 -0.54369,-1.45841 -1.16301,-3.12553 -0.61932,-1.66713 -1.18633,-3.1501 -1.26001,-3.2955 -0.15711,-0.31003 -0.48977,-0.75998 -0.64712,-0.87528 -0.28641,-0.20986 -0.187,-0.20748 -8.79971,-0.21049 -9.53087,-0.003 -8.5742,-0.0559 -9.0684,0.49855 -0.2806,0.31483 -0.43661,0.71302 -2.61899,6.68457 l -0.15279,0.41808 11.8735,0 c 11.2862,0 11.87166,-0.004 11.83653,-0.0944 z"
         style="fill:#000000" />
    </g>
  </g>
</svg>
