<?xml version="1.0" encoding="utf-8"?>
<!-- Generator: Adobe Illustrator 16.0.0, SVG Export Plug-In . SVG Version: 6.00 Build 0)  -->
<!DOCTYPE svg PUBLIC "-//W3C//DTD SVG 1.1//EN" "http://www.w3.org/Graphics/SVG/1.1/DTD/svg11.dtd">
<svg version="1.1"
	 id="svg9780" xmlns:sodipodi="http://sodipodi.sourceforge.net/DTD/sodipodi-0.dtd" xmlns:inkscape="http://www.inkscape.org/namespaces/inkscape" xmlns:cc="http://creativecommons.org/ns#" xmlns:dc="http://purl.org/dc/elements/1.1/" xmlns:svg="http://www.w3.org/2000/svg" xmlns:rdf="http://www.w3.org/1999/02/22-rdf-syntax-ns#" inkscape:version="0.48.4 r" sodipodi:docname="directions_bridle.svg"
	 xmlns="http://www.w3.org/2000/svg" xmlns:xlink="http://www.w3.org/1999/xlink" x="0px" y="0px" width="51px" height="51px"
	 viewBox="0 0 51 51" enable-background="new 0 0 51 51" xml:space="preserve">
<sodipodi:namedview  id="base" fit-margin-left="0" fit-margin-top="0" fit-margin-bottom="0" inkscape:document-units="px" fit-margin-right="0" inkscape:window-width="484" inkscape:window-height="480" inkscape:window-maximized="0" inkscape:pageopacity="0.0" inkscape:window-y="482" inkscape:current-layer="layer1" inkscape:window-x="1386" inkscape:pageshadow="2" bordercolor="#666666" inkscape:cx="32.486493" borderopacity="1.0" pagecolor="#ffffff" inkscape:cy="12.170885" showgrid="false" inkscape:zoom="2.8">
	</sodipodi:namedview>
<path id="path6562_1_" inkscape:connector-curvature="0" opacity="0.5" d="M50.621,36.34c0,7.996-5.775,14.48-12.897,14.48H14.469
	c-7.123,0-12.896-6.482-12.896-14.48V16.251c0-7.999,5.773-14.482,12.896-14.482h23.255c7.122,0,12.897,6.482,12.897,14.482V36.34z"
	/>
<path id="path6562" inkscape:connector-curvature="0" fill="#004E41" d="M49.406,35.125c0,7.998-5.775,14.48-12.897,14.48H13.255
	c-7.124,0-12.897-6.482-12.897-14.48V15.038c0-7.999,5.773-14.482,12.897-14.482h23.254c7.122,0,12.897,6.482,12.897,14.482V35.125z
	"/>
<path id="path7195-9-8" inkscape:connector-curvature="0" fill="#FFFFFF" d="M12.63,40.916c-0.664-0.114-1.354-0.607-1.811-1.295
	c-0.399-0.602-0.401-0.615-0.401-2.836v-1.961H9.042H7.667v-5.588v-5.588l0.143-0.36c0.198-0.497,0.503-0.935,0.988-1.417
	c0.35-0.347,0.473-0.432,0.814-0.561c0.497-0.188,0.982-0.427,1.06-0.522c0.032-0.04,0.731-1.771,1.552-3.848
	c0.822-2.077,1.589-3.959,1.706-4.183c0.616-1.185,1.698-2.097,2.682-2.261c0.259-0.043,2.915-0.056,9.37-0.043
	c10.003,0.019,9.125-0.015,9.858,0.375c0.396,0.211,1.146,0.907,1.469,1.361c0.301,0.426,0.325,0.482,1.916,4.562
	c0.746,1.914,1.4,3.579,1.455,3.7c0.119,0.272,0.346,0.488,0.596,0.568c0.379,0.122,0.84,0.332,1.064,0.487
	c0.555,0.381,1.179,1.179,1.42,1.814c0.27,0.707,0.264,0.56,0.266,6.201l0.002,5.301H42.66c-1.242,0-1.376,0.009-1.455,0.096
	c-0.076,0.084-0.088,0.356-0.103,2.199l-0.016,2.102l-0.158,0.285c-0.535,0.967-1.852,1.592-2.978,1.414
	c-0.679-0.107-1.559-0.62-1.93-1.125c-0.381-0.52-0.379-0.508-0.41-2.813l-0.027-2.077h-9.782H16.02l-0.015,1.511
	c-0.012,1.287-0.031,1.582-0.125,1.996c-0.315,1.394-0.953,2.213-1.901,2.443C13.611,40.944,12.962,40.974,12.63,40.916
	L12.63,40.916z M13.908,28.917c0.856-0.255,1.599-1.07,1.798-1.976c0.092-0.418,0.043-1.131-0.104-1.512
	c-0.457-1.188-1.551-1.853-2.76-1.677c-0.972,0.142-1.69,0.831-1.961,1.881c-0.367,1.423,0.462,3.007,1.729,3.304
	C12.942,29.016,13.611,29.006,13.908,28.917L13.908,28.917z M39.229,28.844c0.333-0.129,0.787-0.489,1.05-0.834
	c0.64-0.838,0.742-1.963,0.265-2.903c-0.071-0.142-0.279-0.417-0.461-0.611c-1.15-1.229-3.079-0.967-3.961,0.538
	c-0.41,0.698-0.443,1.728-0.082,2.491c0.178,0.376,0.68,0.937,1.012,1.132c0.131,0.076,0.377,0.185,0.545,0.24
	C38.016,29.035,38.803,29.01,39.229,28.844L39.229,28.844z M37.636,20.704c-0.021-0.052-0.544-1.458-1.163-3.125
	s-1.187-3.15-1.26-3.295c-0.157-0.31-0.49-0.76-0.647-0.875c-0.286-0.21-0.187-0.208-8.8-0.21c-9.531-0.003-8.574-0.056-9.068,0.499
	c-0.28,0.315-0.437,0.713-2.619,6.685l-0.153,0.418h11.874C37.086,20.798,37.671,20.794,37.636,20.704z"/>
</svg>
