<?xml version="1.0" encoding="utf-8"?>
<!-- Generator: Adobe Illustrator 16.0.0, SVG Export Plug-In . SVG Version: 6.00 Build 0)  -->
<!DOCTYPE svg PUBLIC "-//W3C//DTD SVG 1.1//EN" "http://www.w3.org/Graphics/SVG/1.1/DTD/svg11.dtd">
<svg version="1.1"
	 id="svg9780" xmlns:sodipodi="http://sodipodi.sourceforge.net/DTD/sodipodi-0.dtd" xmlns:inkscape="http://www.inkscape.org/namespaces/inkscape" xmlns:cc="http://creativecommons.org/ns#" xmlns:dc="http://purl.org/dc/elements/1.1/" xmlns:svg="http://www.w3.org/2000/svg" xmlns:rdf="http://www.w3.org/1999/02/22-rdf-syntax-ns#" inkscape:version="0.48.4 r" sodipodi:docname="button_radar.svg"
	 xmlns="http://www.w3.org/2000/svg" xmlns:xlink="http://www.w3.org/1999/xlink" x="0px" y="0px" width="51px" height="51px"
	 viewBox="0 0 51 51" enable-background="new 0 0 51 51" xml:space="preserve">
<path id="path6562_1_" inkscape:connector-curvature="0" opacity="0.5" d="M50.749,36.269c0,7.997-5.775,14.48-12.897,14.48H14.597
	c-7.123,0-12.897-6.482-12.897-14.48V16.18c0-7.999,5.774-14.482,12.897-14.482h23.255c7.122,0,12.897,6.482,12.897,14.482V36.269z"
	/>
<sodipodi:namedview  id="base" fit-margin-left="0" fit-margin-top="0" fit-margin-bottom="0" inkscape:document-units="px" fit-margin-right="0" inkscape:window-width="484" inkscape:window-height="480" inkscape:window-maximized="0" inkscape:pageopacity="0.0" inkscape:window-y="482" inkscape:current-layer="layer1" inkscape:window-x="1386" inkscape:pageshadow="2" bordercolor="#666666" inkscape:cx="27.329437" borderopacity="1.0" pagecolor="#ffffff" inkscape:cy="11.716662" showgrid="false" inkscape:zoom="2.8">
	</sodipodi:namedview>
<g id="layer1" transform="translate(-614.44544,-565.90694)" inkscape:label="Layer 1" inkscape:groupmode="layer">
	<g id="g7612" transform="translate(311.75794,83.750687)">
		<path id="path6562" inkscape:connector-curvature="0" fill="#0D6B51" d="M352.222,517.211c0,7.997-5.775,14.48-12.897,14.48
			H316.07c-7.124,0-12.897-6.482-12.897-14.48v-20.088c0-7.999,5.773-14.482,12.897-14.482h23.254
			c7.122,0,12.897,6.482,12.897,14.482V517.211z"/>
		<g id="g7048" transform="translate(44.082839,423.90902)">
			<g id="g7050">
				<path id="path7052" inkscape:connector-curvature="0" fill="#FFFFFF" d="M287.147,68.124c0.601,1.43-0.122,3.1-1.613,3.727
					c-1.492,0.628-3.192-0.022-3.796-1.451c-0.601-1.432,0.125-3.1,1.616-3.731C284.845,66.043,286.546,66.691,287.147,68.124z"/>
				<path id="path7054" inkscape:connector-curvature="0" fill="#FFFFFF" d="M270.091,84.964c-4.056,1.706-6.002,6.303-4.333,10.268
					c1.666,3.959,6.312,5.786,10.369,4.079c4.064-1.709,6.002-6.305,4.336-10.265C278.796,85.082,274.155,83.254,270.091,84.964z
					 M275.373,97.516c-3.044,1.281-6.527-0.091-7.776-3.059c-1.251-2.97,0.202-6.42,3.248-7.7c3.047-1.283,6.532,0.092,7.783,3.062
					C279.877,92.788,278.422,96.233,275.373,97.516L275.373,97.516z"/>
				<path id="path7056" inkscape:connector-curvature="0" fill="#FFFFFF" d="M291.105,85.096c-4.062,1.709-6.003,6.303-4.336,10.27
					c1.666,3.958,6.31,5.787,10.371,4.079c4.059-1.707,5.998-6.309,4.335-10.268C299.807,85.215,295.165,83.389,291.105,85.096z
					 M296.388,97.651c-3.05,1.28-6.532-0.093-7.781-3.063c-1.251-2.971,0.207-6.414,3.252-7.698c3.043-1.278,6.527,0.091,7.78,3.061
					C300.887,92.92,299.431,96.37,296.388,97.651z"/>
				<path id="path7058" inkscape:connector-curvature="0" fill="#FFFFFF" d="M291.408,77.92c-0.035,0.005-0.062,0.024-0.091,0.036
					c0.533,0.484,0.751,1.153,0.467,1.642c-0.257,0.453-0.854,0.619-1.481,0.479l-7.724,2.484l-4.734,1.532l-0.353,0.111
					c-0.024,0.008-0.048,0.024-0.077,0.037c-0.071,0.02-0.137,0.06-0.171,0.122l-4.372,7.488l-0.075,0.026
					c-0.071,0.024-0.097,0.14-0.083,0.274c-0.035,0.111,0.012,0.236,0.115,0.333c0.082,0.135,0.188,0.215,0.267,0.185l5.508-2.079
					c0.029-0.014,0.049-0.033,0.068-0.067c0.04-0.019,0.081-0.035,0.117-0.068l3.425-2.73l3.096-2.465l5.692-4.538
					c0.085-0.066,0.217-0.094,0.217-0.094l2.194,11.193c0.058,0.298,0.387,0.484,0.745,0.416c0.354-0.068,0.593-0.36,0.532-0.665
					l-2.541-13.228C292.092,78.042,291.76,77.852,291.408,77.92L291.408,77.92z M285.093,84.435l-2.934,2.34l-3.793,3.025
					c-0.022-0.004-0.039-0.006-0.059,0l-4.281,1.613l3.791-6.5l1.058-0.339l4.736-1.524l5.408-1.744L285.093,84.435L285.093,84.435z
					"/>
				<g id="g7060">
					<path id="path7062" inkscape:connector-curvature="0" fill="#FFFFFF" d="M282.525,92.96c0.059,0.985,0.827,1.74,1.719,1.687
						c0.888-0.052,1.558-0.894,1.504-1.875l-0.437-7.512l-3.096,2.465L282.525,92.96z"/>
					<path id="path7064" inkscape:connector-curvature="0" fill="#FFFFFF" d="M284.058,83.26l-0.449-0.209l-4.736,1.524l3.249,1.532
						l0.036,0.668l2.934-2.34c-0.022-0.047-0.039-0.098-0.061-0.139C284.864,83.862,284.528,83.484,284.058,83.26L284.058,83.26z"/>
					<path id="path7066" inkscape:connector-curvature="0" fill="#FFFFFF" d="M291.318,77.956c-0.125-0.106-0.25-0.209-0.402-0.299
						l-9.134-5.248c-0.818-0.472-1.765-0.373-2.108,0.228c-0.156,0.279-1.472,1.974-2.083,2.808l-1.621,2.213
						c-0.961,1.31-1.39,2.74-1.25,3.819c-0.006,0.662,0.401,1.328,1.088,1.651l2.037,0.964l4.734-1.532l-2.888-1.357
						c0.146-0.166,0.289-0.329,0.422-0.507l1.622-2.215c0.616-0.838,1.003-1.728,1.176-2.541l6.765,3.887
						c0.203,0.117,0.416,0.205,0.629,0.248c0.628,0.14,1.225-0.026,1.481-0.479C292.069,79.109,291.851,78.441,291.318,77.956
						L291.318,77.956z"/>
				</g>
			</g>
		</g>
	</g>
</g>
</svg>
