<?xml version="1.0" encoding="utf-8"?>
<!-- Generator: Adobe Illustrator 16.0.0, SVG Export Plug-In . SVG Version: 6.00 Build 0)  -->
<!DOCTYPE svg PUBLIC "-//W3C//DTD SVG 1.1//EN" "http://www.w3.org/Graphics/SVG/1.1/DTD/svg11.dtd">
<svg version="1.1"
	 id="svg9780" xmlns:sodipodi="http://sodipodi.sourceforge.net/DTD/sodipodi-0.dtd" xmlns:inkscape="http://www.inkscape.org/namespaces/inkscape" xmlns:cc="http://creativecommons.org/ns#" xmlns:dc="http://purl.org/dc/elements/1.1/" xmlns:svg="http://www.w3.org/2000/svg" xmlns:rdf="http://www.w3.org/1999/02/22-rdf-syntax-ns#" inkscape:version="0.48.4 r" sodipodi:docname="directions_car.svg"
	 xmlns="http://www.w3.org/2000/svg" xmlns:xlink="http://www.w3.org/1999/xlink" x="0px" y="0px" width="51px" height="51px"
	 viewBox="0 0 51 51" enable-background="new 0 0 51 51" xml:space="preserve">
<path id="path6447-0_1_" inkscape:connector-curvature="0" opacity="0.5" d="M50.581,36.147c0,8.035-5.802,14.549-12.957,14.549
	H14.261c-7.156,0-12.957-6.512-12.957-14.549v-20.18c0-8.035,5.801-14.548,12.957-14.548h23.363c7.155,0,12.957,6.512,12.957,14.548
	V36.147z"/>
<sodipodi:namedview  id="base" fit-margin-left="0" fit-margin-top="0" fit-margin-bottom="0" inkscape:document-units="px" fit-margin-right="0" inkscape:window-width="484" inkscape:window-height="480" inkscape:window-maximized="0" inkscape:pageopacity="0.0" inkscape:window-y="482" inkscape:current-layer="layer1" inkscape:window-x="1386" inkscape:pageshadow="2" bordercolor="#666666" inkscape:cx="50.854913" borderopacity="1.0" pagecolor="#ffffff" inkscape:cy="8.3828781" showgrid="false" inkscape:zoom="2.8">
	</sodipodi:namedview>
<path id="path6447-0" inkscape:connector-curvature="0" fill="#004E41" d="M49.595,35.161c0,8.035-5.802,14.549-12.957,14.549
	H13.274c-7.156,0-12.957-6.512-12.957-14.549v-20.18c0-8.035,5.801-14.548,12.957-14.548h23.363c7.155,0,12.957,6.512,12.957,14.548
	V35.161z"/>
<path id="path7264-8-9" inkscape:connector-curvature="0" fill="#FFFFFF" d="M13.833,43.403c-0.632-0.125-1.128-0.51-1.396-1.082
	c-0.251-0.535-0.333-1.119-0.333-2.379v-1.145h-1.211H9.681v-8.016v-8.014l0.769-5.562c0.496-3.584,0.813-5.692,0.89-5.928
	c0.482-1.461,2.261-2.743,4.653-3.355c2.306-0.59,4.512-0.978,6.6-1.161c1.116-0.098,4.766-0.1,5.466-0.004
	c1.398,0.193,2.557,0.371,2.938,0.451c0.694,0.146,2.985,0.73,3.511,0.895c2.223,0.698,3.844,1.938,4.184,3.202
	c0.037,0.138,0.399,2.796,0.804,5.907l0.737,5.658v7.963v7.965H38.99h-1.241v1.475c0,0.824-0.027,1.604-0.063,1.768
	c-0.252,1.176-2.093,1.809-3.323,1.143c-0.316-0.172-0.555-0.441-0.772-0.877c-0.255-0.506-0.339-1.025-0.375-2.283l-0.032-1.166
	h-8.261h-8.26l-0.019,1.639c-0.018,1.553-0.025,1.652-0.147,1.881C16.069,43.173,14.917,43.616,13.833,43.403L13.833,43.403z
	 M14.996,33.854c1.013-0.156,1.685-1.537,1.33-2.73c-0.189-0.637-0.836-1.191-1.516-1.297c-0.947-0.148-1.839,0.297-2.283,1.137
	c-0.14,0.266-0.158,0.363-0.158,0.889c0,0.527,0.018,0.629,0.164,0.926c0.291,0.592,0.88,1.016,1.546,1.115
	C14.364,33.935,14.531,33.927,14.996,33.854L14.996,33.854z M36.096,33.854c0.113-0.018,0.333-0.1,0.489-0.186
	c1.257-0.682,1.343-2.602,0.157-3.473c-0.389-0.283-0.718-0.389-1.237-0.391c-0.612,0-1.036,0.164-1.44,0.561
	c-0.478,0.471-0.6,0.77-0.6,1.486c0,0.516,0.021,0.633,0.155,0.918c0.285,0.6,0.855,1.02,1.518,1.117
	C35.456,33.935,35.614,33.929,36.096,33.854L36.096,33.854z M36.905,24.379c0.184-0.064,0.409-0.189,0.501-0.277l0.166-0.16v-0.853
	c0-0.708-0.051-1.213-0.299-2.958c-0.504-3.563-0.815-5.468-0.974-5.974c-0.175-0.549-0.463-0.901-0.793-0.967
	c-0.306-0.062-20.741-0.044-21.01,0.018c-0.368,0.083-0.687,0.474-0.879,1.078c-0.172,0.54-0.285,1.254-0.775,4.893
	c-0.182,1.349-0.369,2.691-0.416,2.984c-0.201,1.249-0.047,1.924,0.503,2.201l0.264,0.133h11.689
	C36.397,24.497,36.576,24.494,36.905,24.379L36.905,24.379z M31.836,11.096c0.459-0.459,0.335-1.604-0.185-1.697
	c-0.108-0.02-3.177-0.027-6.822-0.018c-7.558,0.02-6.795-0.043-6.973,0.569c-0.123,0.421-0.033,0.893,0.218,1.144l0.166,0.166h6.716
	h6.716L31.836,11.096L31.836,11.096z"/>
</svg>
