<?xml version="1.0" encoding="utf-8"?>
<!-- Generator: Adobe Illustrator 16.0.0, SVG Export Plug-In . SVG Version: 6.00 Build 0)  -->
<!DOCTYPE svg PUBLIC "-//W3C//DTD SVG 1.1//EN" "http://www.w3.org/Graphics/SVG/1.1/DTD/svg11.dtd">
<svg version="1.1"
	 id="svg9780" xmlns:sodipodi="http://sodipodi.sourceforge.net/DTD/sodipodi-0.dtd" xmlns:inkscape="http://www.inkscape.org/namespaces/inkscape" xmlns:cc="http://creativecommons.org/ns#" xmlns:dc="http://purl.org/dc/elements/1.1/" xmlns:svg="http://www.w3.org/2000/svg" xmlns:rdf="http://www.w3.org/1999/02/22-rdf-syntax-ns#" inkscape:version="0.48.4 r" sodipodi:docname="directions_hike_active.svg"
	 xmlns="http://www.w3.org/2000/svg" xmlns:xlink="http://www.w3.org/1999/xlink" x="0px" y="0px" width="51px" height="51px"
	 viewBox="0 0 51 51" enable-background="new 0 0 51 51" xml:space="preserve">
<path id="path6562_1_" inkscape:connector-curvature="0" opacity="0.5" d="M50.631,36.269c0,7.997-5.775,14.48-12.896,14.48H14.479
	c-7.123,0-12.896-6.482-12.896-14.48V16.18c0-7.999,5.773-14.482,12.896-14.482h23.255c7.121,0,12.896,6.482,12.896,14.482V36.269z"
	/>
<path id="path6562" inkscape:connector-curvature="0" fill="#004E41" d="M49.416,35.055c0,7.997-5.775,14.48-12.896,14.48H13.265
	c-7.124,0-12.897-6.482-12.897-14.48V14.967c0-7.999,5.773-14.482,12.897-14.482H36.52c7.121,0,12.896,6.482,12.896,14.482V35.055z"
	/>
<sodipodi:namedview  id="base" fit-margin-left="0" fit-margin-top="0" fit-margin-bottom="0" inkscape:document-units="px" fit-margin-right="0" inkscape:window-width="484" inkscape:window-height="480" inkscape:window-maximized="0" inkscape:pageopacity="0.0" inkscape:window-y="482" inkscape:current-layer="layer1" inkscape:window-x="1386" inkscape:pageshadow="2" bordercolor="#666666" inkscape:cx="67.477376" borderopacity="1.0" pagecolor="#ffffff" inkscape:cy="10.202398" showgrid="false" inkscape:zoom="1.979899">
	</sodipodi:namedview>
<g id="g6474" transform="translate(107.05407,424.18772)">
	
		<ellipse id="ellipse6476" sodipodi:rx="3.6359999" sodipodi:cx="165.653" sodipodi:ry="3.6070001" sodipodi:cy="66.135002" fill="#FFFFFF" cx="-79.31" cy="-415.584" rx="3.637" ry="3.607">
	</ellipse>
	<path id="path6478" inkscape:connector-curvature="0" fill="#FFFFFF" d="M-72.13-397.481l0.121-0.184
		c0.443-0.609,0.119-1.402-0.381-1.766l-0.094-0.089l-1.012,2.399C-73.035-396.942-72.482-396.996-72.13-397.481L-72.13-397.481z"/>
	<path id="path6480" inkscape:connector-curvature="0" fill="#FFFFFF" d="M-81.322-397.74c0.563-1.176,1.043-2.592,1.403-4.154
		l0.102,0.202c0.104,0.198,0.668,0.811,0.838,0.933l3.891,2.616l1.145-2.707l-2.586-2.369c-0.01-0.03-2.098-4.139-3.113-6.137
		c-0.342-1.214-0.959-2.029-1.876-2.236c-0.805-0.181-2.409-0.071-3.227,0.609c-1.515,1.262-2.345,3.992-3.044,7.083
		c-0.441,1.95-1.069,4.146-0.871,5.709c0.154,1.221,0.699,2.154,1.378,2.811c-0.75,2.995-1.999,7.976-2.001,8.014l-4.162,6.025
		c-0.534,0.607-0.714,1.711,0.031,2.358l0.208,0.194c0.742,0.652,1.694,0.334,2.227-0.273l5.529-5.891
		c0.18-0.207,0.719-1.146,0.793-1.431l1.431-5.696c1.489,2.229,3.17,4.74,3.434,5.121l2.197-5.218L-81.322-397.74L-81.322-397.74z"
		/>
	<path id="path6482" inkscape:connector-curvature="0" fill="#FFFFFF" d="M-78.085-379.773c0.094,0.798,0.785,1.672,1.768,1.558
		l0.287-0.022c0.982-0.113,1.383-1.033,1.287-1.836l-0.652-8.054c-0.033-0.272-0.369-1.302-0.531-1.545l-0.43-0.646l-2.697,6.407
		L-78.085-379.773z"/>
	<path id="path6484" inkscape:connector-curvature="0" fill="#FFFFFF" d="M-70.388-406.878c-0.379-0.162-0.828,0.04-1,0.446
		l-3.047,7.219l-0.91,2.167l-2.014,4.774l-1.754,4.175l-3.681,8.674c-0.17,0.406-0.002,0.867,0.377,1.027
		c0.38,0.159,0.826-0.041,0.998-0.448l2.896-6.815l2.16-5.124l2.291-5.441l0.807-1.92l3.252-7.705
		C-69.841-406.26-70.007-406.719-70.388-406.878z"/>
	<g id="g6486">
		<path id="path6488" inkscape:connector-curvature="0" fill="#FFFFFF" d="M-86.025-412.567c-4.785-0.806-6.74,3.546-7.645,7.213
			c-0.876,3.547,0.674,5.654,3.731,5.654c0.038,0,0.079,0,0.119-0.003c0.02-1.474,0.534-3.315,0.907-4.978
			c0.699-3.087,1.53-5.818,3.044-7.079c0.292-0.238,0.676-0.405,1.092-0.52c0.028-0.027,0.056-0.058,0.086-0.089
			C-84.91-412.45-85.724-412.514-86.025-412.567z"/>
	</g>
</g>
</svg>
