<?xml version="1.0" encoding="UTF-8" standalone="no"?>
<!-- Created with Inkscape (http://www.inkscape.org/) -->

<svg
   xmlns:dc="http://purl.org/dc/elements/1.1/"
   xmlns:cc="http://creativecommons.org/ns#"
   xmlns:rdf="http://www.w3.org/1999/02/22-rdf-syntax-ns#"
   xmlns:svg="http://www.w3.org/2000/svg"
   xmlns="http://www.w3.org/2000/svg"
   xmlns:sodipodi="http://sodipodi.sourceforge.net/DTD/sodipodi-0.dtd"
   xmlns:inkscape="http://www.inkscape.org/namespaces/inkscape"
   width="70"
   height="68.659866"
   id="svg9698"
   version="1.1"
   inkscape:version="0.48.4 r"
   sodipodi:docname="directions_car.svg">
  <defs
     id="defs9700" />
  <sodipodi:namedview
     id="base"
     pagecolor="#ffffff"
     bordercolor="#666666"
     borderopacity="1.0"
     inkscape:pageopacity="0.0"
     inkscape:pageshadow="2"
     inkscape:zoom="1.979899"
     inkscape:cx="87.119955"
     inkscape:cy="14.839804"
     inkscape:document-units="px"
     inkscape:current-layer="layer1"
     showgrid="false"
     fit-margin-top="0"
     fit-margin-left="0"
     fit-margin-right="0"
     fit-margin-bottom="0"
     inkscape:window-width="484"
     inkscape:window-height="480"
     inkscape:window-x="1210"
     inkscape:window-y="269"
     inkscape:window-maximized="0" />
  <metadata
     id="metadata9703">
    <rdf:RDF>
      <cc:Work
         rdf:about="">
        <dc:format>image/svg+xml</dc:format>
        <dc:type
           rdf:resource="http://purl.org/dc/dcmitype/StillImage" />
        <dc:title></dc:title>
      </cc:Work>
    </rdf:RDF>
  </metadata>
  <g
     inkscape:label="Layer 1"
     inkscape:groupmode="layer"
     id="layer1"
     transform="translate(-259.86709,-368.52159)">
    <g
       id="g8671"
       transform="translate(-225.1168,-211.46857)">
      <g
         transform="translate(243.57764,441.01009)"
         id="g6156">
        <g
           id="g6152">
          <rect
             y="155.94579"
             x="263.34805"
             height="35.034454"
             width="30.135956"
             id="rect5351"
             style="fill:#000000;fill-opacity:1;stroke:#000000;stroke-width:0.61940908;stroke-miterlimit:10;stroke-opacity:1;stroke-dasharray:none" />
          <path
             inkscape:connector-curvature="0"
             id="path5328"
             d="m 258.15692,191.77375 c -13.16833,-12.66699 -16.25,-16.146 -16.25,-18.34522 0,-2.1791 3.14136,-5.82031 15.94146,-18.47807 13.21127,-13.06437 16.37224,-15.70903 18.45681,-15.44212 3.03748,0.38893 34.60173,31.19002 34.60173,33.76513 0,2.37721 -31.49979,33.4881 -34.26734,33.84428 -1.70443,0.21935 -6.07726,-3.4109 -18.48266,-15.344 z m 14.17981,-8.52573 c 0.37848,-3.34531 1.14995,-7.09594 1.71438,-8.33473 0.89903,-1.97316 5.59319,-5.58288 7.2601,-5.58288 0.32764,0 0.61417,1.9125 0.63672,4.25 l 0.041,4.25 3.70899,-4.13199 c 2.03994,-2.2726 4.52845,-5.54614 5.53001,-7.27453 l 1.82102,-3.14253 -7.62642,-3.47547 c -4.19453,-1.91151 -8.06305,-3.47548 -8.5967,-3.47548 -0.53366,0 -0.2226,1.44586 0.69124,3.21303 1.56202,3.02061 1.55633,3.27512 -0.0949,4.25 -9.69121,5.7216 -12.47441,10.01636 -12.49881,19.28697 l -0.0165,6.25 3.37083,0 3.37084,0 0.68814,-6.08239 z"
             style="fill:#efe7ce;fill-opacity:1;stroke:#000000;stroke-width:1;stroke-miterlimit:10;stroke-opacity:1;stroke-dasharray:none" />
        </g>
      </g>
    </g>
  </g>
</svg>
