<?xml version="1.0" encoding="UTF-8" standalone="no"?>
<!-- Created with Inkscape (http://www.inkscape.org/) -->

<svg
   xmlns:dc="http://purl.org/dc/elements/1.1/"
   xmlns:cc="http://creativecommons.org/ns#"
   xmlns:rdf="http://www.w3.org/1999/02/22-rdf-syntax-ns#"
   xmlns:svg="http://www.w3.org/2000/svg"
   xmlns="http://www.w3.org/2000/svg"
   xmlns:sodipodi="http://sodipodi.sourceforge.net/DTD/sodipodi-0.dtd"
   xmlns:inkscape="http://www.inkscape.org/namespaces/inkscape"
   width="51"
   height="51"
   id="svg9780"
   version="1.1"
   inkscape:version="0.48.4 r"
   sodipodi:docname="directions_car_active.svg">
  <defs
     id="defs9782" />
  <sodipodi:namedview
     id="base"
     pagecolor="#ffffff"
     bordercolor="#666666"
     borderopacity="1.0"
     inkscape:pageopacity="0.0"
     inkscape:pageshadow="2"
     inkscape:zoom="1.979899"
     inkscape:cx="43.743576"
     inkscape:cy="-5.9539384"
     inkscape:document-units="px"
     inkscape:current-layer="layer1"
     showgrid="false"
     fit-margin-top="0"
     fit-margin-left="0"
     fit-margin-right="0"
     fit-margin-bottom="0"
     inkscape:window-width="484"
     inkscape:window-height="480"
     inkscape:window-x="1386"
     inkscape:window-y="482"
     inkscape:window-maximized="0" />
  <metadata
     id="metadata9785">
    <rdf:RDF>
      <cc:Work
         rdf:about="">
        <dc:format>image/svg+xml</dc:format>
        <dc:type
           rdf:resource="http://purl.org/dc/dcmitype/StillImage" />
        <dc:title></dc:title>
      </cc:Work>
    </rdf:RDF>
  </metadata>
  <g
     inkscape:label="Layer 1"
     inkscape:groupmode="layer"
     id="layer1"
     transform="translate(-701.29266,-548.20596)">
    <g
       id="g7557"
       transform="translate(538.32391,178.73721)">
      <path
         style="fill:#ac8e58;fill-opacity:1;stroke:#000000;stroke-width:1;stroke-miterlimit:10"
         inkscape:connector-curvature="0"
         id="path6447-9-7"
         d="m 213.45371,405.19635 c 0,8.15301 -5.886,14.76201 -13.147,14.76201 l -23.706,0 c -7.261,0 -13.147,-6.60801 -13.147,-14.76201 l 0,-20.47699 c 0,-8.15301 5.886,-14.76201 13.147,-14.76201 l 23.706,0 c 7.261,0 13.147,6.608 13.147,14.76201 l 0,20.47699 z"
         stroke-miterlimit="10" />
      <path
         inkscape:connector-curvature="0"
         id="path7264-8"
         d="m 177.1673,413.55858 c -0.64103,-0.12653 -1.14464,-0.5162 -1.41693,-1.09639 -0.25505,-0.54343 -0.33811,-1.13658 -0.33811,-2.41448 l 0,-1.16281 -1.22919,0 -1.2292,0 0,-8.13207 0,-8.13206 0.78067,-5.64391 c 0.50296,-3.63641 0.8242,-5.77595 0.90311,-6.01511 0.48904,-1.4824 2.29391,-2.78407 4.72145,-3.40511 2.33942,-0.5985 4.57719,-0.99212 6.69619,-1.17783 1.13204,-0.0993 4.83678,-0.10182 5.54636,-0.004 1.41925,0.19581 2.59477,0.37621 2.9812,0.4575 0.70506,0.14831 3.0291,0.74063 3.56221,0.90788 2.25586,0.70772 3.90033,1.96614 4.24578,3.24909 0.0376,0.13967 0.40462,2.83715 0.81556,5.99437 l 0.74715,5.74042 0,8.0804 0,8.08039 -1.25917,0 -1.25917,0 0,1.49606 c 0,0.83801 -0.0282,1.6279 -0.0644,1.79578 -0.25585,1.193 -2.12359,1.83426 -3.37288,1.15802 -0.32131,-0.17392 -0.56217,-0.44701 -0.78351,-0.88834 -0.25794,-0.51432 -0.34432,-1.04074 -0.38029,-2.31734 l -0.0334,-1.18423 -8.3816,0 -8.38159,0 -0.0192,1.66391 c -0.0182,1.57471 -0.0262,1.677 -0.1498,1.90785 -0.4325,0.808 -1.60176,1.25901 -2.70139,1.04197 z m 1.18025,-9.68823 c 1.0276,-0.15966 1.70908,-1.55888 1.3493,-2.77043 -0.19205,-0.64668 -0.84901,-1.20889 -1.53851,-1.31658 -0.96102,-0.15009 -1.86635,0.30093 -2.31652,1.15401 -0.14207,0.26923 -0.15964,0.36859 -0.15968,0.90216 -6e-5,0.53386 0.0181,0.63668 0.16607,0.93788 0.29508,0.60088 0.89362,1.03223 1.56942,1.13106 0.28822,0.0422 0.45816,0.0352 0.92992,-0.0382 z m 21.40875,-3e-5 c 0.11543,-0.0178 0.33907,-0.10224 0.49699,-0.18786 1.27516,-0.69126 1.36344,-2.64036 0.15962,-3.52404 -0.39417,-0.28934 -0.72896,-0.39488 -1.25629,-0.39603 -0.62012,-9.2e-4 -1.04995,0.16597 -1.46013,0.56846 -0.48554,0.47646 -0.60842,0.78117 -0.60842,1.50866 0,0.52236 0.0202,0.64208 0.15665,0.92938 0.28972,0.60986 0.86857,1.03617 1.54023,1.1343 0.32405,0.0474 0.48377,0.042 0.97135,-0.0329 z m 0.82198,-9.61518 c 0.18663,-0.0656 0.4153,-0.19206 0.50818,-0.28105 l 0.16886,-0.16177 0,-0.86598 c 0,-0.71797 -0.0517,-1.23102 -0.30248,-3.0018 -0.51197,-3.61502 -0.82765,-5.54856 -0.98959,-6.06116 -0.17613,-0.55758 -0.46895,-0.91495 -0.80468,-0.98209 -0.30873,-0.0617 -21.04478,-0.0441 -21.3179,0.0181 -0.37403,0.0852 -0.69653,0.48055 -0.89217,1.09356 -0.17493,0.54814 -0.2897,1.27214 -0.78696,4.96491 -0.1843,1.3686 -0.37422,2.73121 -0.42202,3.02801 -0.20409,1.26693 -0.0476,1.95242 0.50992,2.23354 l 0.26752,0.13492 11.86101,0 c 11.68518,0 11.86606,-0.002 12.20031,-0.11926 z m -5.14386,-13.4779 c 0.46592,-0.46592 0.33959,-1.62719 -0.1873,-1.72185 -0.10875,-0.0196 -3.22367,-0.0277 -6.92202,-0.0182 -7.66822,0.0197 -6.89472,-0.0435 -7.07531,0.57776 -0.12426,0.42744 -0.0332,0.90594 0.22076,1.15988 l 0.16841,0.1684 6.81476,0 6.81476,0 0.16594,-0.16595 z"
         style="fill:#000000" />
    </g>
  </g>
</svg>
