<?xml version="1.0" encoding="utf-8"?>
<!-- Generator: Adobe Illustrator 16.0.0, SVG Export Plug-In . SVG Version: 6.00 Build 0)  -->
<!DOCTYPE svg PUBLIC "-//W3C//DTD SVG 1.1//EN" "http://www.w3.org/Graphics/SVG/1.1/DTD/svg11.dtd">
<svg version="1.1"
	 id="svg9780" xmlns:sodipodi="http://sodipodi.sourceforge.net/DTD/sodipodi-0.dtd" xmlns:inkscape="http://www.inkscape.org/namespaces/inkscape" xmlns:cc="http://creativecommons.org/ns#" xmlns:dc="http://purl.org/dc/elements/1.1/" xmlns:svg="http://www.w3.org/2000/svg" xmlns:rdf="http://www.w3.org/1999/02/22-rdf-syntax-ns#" inkscape:version="0.48.4 r" sodipodi:docname="directions_car_active.svg"
	 xmlns="http://www.w3.org/2000/svg" xmlns:xlink="http://www.w3.org/1999/xlink" x="0px" y="0px" width="51px" height="51px"
	 viewBox="0 0 51 51" enable-background="new 0 0 51 51" xml:space="preserve">
<path id="path6447-9-7_1_" inkscape:connector-curvature="0" opacity="0" fill="#FFFFFF" d="M50.695,36.25
	c0,8.035-5.8,14.549-12.957,14.549H14.375c-7.156,0-12.957-6.512-12.957-14.549V16.07c0-8.035,5.801-14.548,12.957-14.548h23.363
	c7.157,0,12.957,6.512,12.957,14.548V36.25z"/>
<sodipodi:namedview  id="base" fit-margin-left="0" fit-margin-top="0" fit-margin-bottom="0" inkscape:document-units="px" fit-margin-right="0" inkscape:window-width="484" inkscape:window-height="480" inkscape:window-maximized="0" inkscape:pageopacity="0.0" inkscape:window-y="482" inkscape:current-layer="layer1" inkscape:window-x="1386" inkscape:pageshadow="2" bordercolor="#666666" inkscape:cx="43.743576" borderopacity="1.0" pagecolor="#ffffff" inkscape:cy="-5.9539384" showgrid="false" inkscape:zoom="1.979899">
	</sodipodi:namedview>
<path id="path6447-9-7" inkscape:connector-curvature="0" fill="#6CB13D" d="M49.708,35.264c0,8.035-5.8,14.549-12.956,14.549
	H13.389c-7.156,0-12.957-6.514-12.957-14.549v-20.18c0-8.035,5.801-14.548,12.957-14.548h23.363c7.156,0,12.956,6.512,12.956,14.548
	V35.264z"/>
<path id="path7264-8" inkscape:connector-curvature="0" fill="#FFFFFF" d="M13.947,43.504c-0.632-0.125-1.128-0.508-1.396-1.08
	c-0.252-0.535-0.333-1.119-0.333-2.379v-1.146h-1.211H9.795v-8.014V22.87l0.769-5.562c0.496-3.583,0.812-5.692,0.89-5.928
	c0.481-1.461,2.261-2.744,4.653-3.356c2.306-0.59,4.512-0.978,6.6-1.161c1.116-0.098,4.767-0.101,5.466-0.004
	c1.399,0.193,2.557,0.371,2.938,0.451c0.694,0.146,2.984,0.73,3.51,0.895c2.224,0.697,3.844,1.938,4.185,3.202
	c0.037,0.137,0.398,2.795,0.805,5.907l0.735,5.657v7.963v7.963h-1.24h-1.241v1.475c0,0.826-0.027,1.604-0.063,1.77
	c-0.252,1.176-2.093,1.809-3.324,1.143c-0.316-0.174-0.555-0.441-0.771-0.877c-0.254-0.506-0.34-1.025-0.376-2.283l-0.032-1.166
	h-8.261h-8.26l-0.019,1.639c-0.019,1.553-0.026,1.652-0.148,1.881C16.183,43.273,15.03,43.719,13.947,43.504L13.947,43.504z
	 M15.11,33.957c1.013-0.156,1.684-1.537,1.33-2.73c-0.189-0.637-0.837-1.191-1.516-1.297c-0.947-0.148-1.839,0.295-2.283,1.137
	c-0.14,0.266-0.157,0.363-0.157,0.889s0.018,0.629,0.164,0.924c0.291,0.594,0.881,1.018,1.547,1.115
	C14.478,34.037,14.646,34.029,15.11,33.957L15.11,33.957z M36.209,33.957c0.113-0.018,0.335-0.102,0.491-0.186
	c1.256-0.682,1.344-2.602,0.156-3.473c-0.389-0.285-0.719-0.389-1.238-0.391c-0.61,0-1.034,0.164-1.438,0.561
	c-0.479,0.469-0.6,0.77-0.6,1.486c0,0.516,0.02,0.633,0.153,0.916c0.287,0.602,0.856,1.021,1.519,1.119
	C35.572,34.037,35.729,34.031,36.209,33.957L36.209,33.957z M37.02,24.481c0.185-0.064,0.41-0.189,0.5-0.277l0.168-0.159v-0.854
	c0-0.708-0.052-1.213-0.299-2.958c-0.504-3.563-0.815-5.468-0.976-5.973c-0.173-0.55-0.462-0.901-0.793-0.968
	c-0.304-0.061-20.74-0.043-21.009,0.018c-0.369,0.084-0.687,0.474-0.88,1.078c-0.172,0.54-0.285,1.253-0.775,4.893
	c-0.182,1.349-0.369,2.691-0.417,2.984c-0.201,1.249-0.046,1.925,0.503,2.201l0.264,0.133h11.689
	C36.512,24.599,36.69,24.597,37.02,24.481L37.02,24.481z M31.95,11.199c0.459-0.459,0.334-1.604-0.185-1.697
	c-0.107-0.02-3.177-0.027-6.822-0.019c-7.558,0.02-6.795-0.042-6.973,0.57c-0.123,0.421-0.033,0.893,0.218,1.143l0.166,0.166h6.716
	h6.717L31.95,11.199L31.95,11.199z"/>
</svg>
