<?xml version="1.0" encoding="utf-8"?>
<!-- Generator: Adobe Illustrator 16.0.0, SVG Export Plug-In . SVG Version: 6.00 Build 0)  -->
<!DOCTYPE svg PUBLIC "-//W3C//DTD SVG 1.1//EN" "http://www.w3.org/Graphics/SVG/1.1/DTD/svg11.dtd">
<svg version="1.1"
	 id="svg9780" inkscape:version="0.48.4 r" sodipodi:docname="find_pois.svg" xmlns:svg="http://www.w3.org/2000/svg" xmlns:rdf="http://www.w3.org/1999/02/22-rdf-syntax-ns#" xmlns:cc="http://creativecommons.org/ns#" xmlns:inkscape="http://www.inkscape.org/namespaces/inkscape" xmlns:dc="http://purl.org/dc/elements/1.1/" xmlns:sodipodi="http://sodipodi.sourceforge.net/DTD/sodipodi-0.dtd"
	 xmlns="http://www.w3.org/2000/svg" xmlns:xlink="http://www.w3.org/1999/xlink" x="0px" y="0px" width="45px" height="31px"
	 viewBox="0 0 45 31" enable-background="new 0 0 45 31" xml:space="preserve">
<sodipodi:namedview  id="base" inkscape:cy="-5.535716" bordercolor="#666666" pagecolor="#ffffff" showgrid="false" inkscape:cx="53.795676" inkscape:zoom="2.8" borderopacity="1.0" inkscape:document-units="px" fit-margin-right="0" fit-margin-bottom="0" fit-margin-top="0" fit-margin-left="0" inkscape:current-layer="layer1" inkscape:window-y="169" inkscape:window-x="1869" inkscape:window-height="480" inkscape:window-width="1079" inkscape:pageshadow="2" inkscape:pageopacity="0.0" inkscape:window-maximized="0">
	</sodipodi:namedview>
<g id="layer1" transform="translate(-625.70954,-555.43618)" inkscape:groupmode="layer" inkscape:label="Layer 1">
	<g id="g3508" transform="translate(686.15284,526.94453)">
		<path id="path1906-8" inkscape:connector-curvature="0" fill="#231F20" d="M-30.193,38.028c0-4.396-3.639-7.96-8.125-7.96
			c-4.486,0-8.125,3.564-8.125,7.96c0,1.333,0.34,2.589,0.932,3.692h-0.004l7.197,14.772l7.197-14.772h-0.004
			C-30.532,40.617-30.193,39.361-30.193,38.028z M-38.318,39.912c-1.795,0-3.25-1.425-3.25-3.184c0-1.758,1.455-3.184,3.25-3.184
			s3.25,1.426,3.25,3.184C-35.068,38.487-36.523,39.912-38.318,39.912z"/>
	</g>
</g>
</svg>
