<?xml version="1.0" encoding="UTF-8" standalone="no"?>
<!-- Created with Inkscape (http://www.inkscape.org/) -->

<svg
   xmlns:dc="http://purl.org/dc/elements/1.1/"
   xmlns:cc="http://creativecommons.org/ns#"
   xmlns:rdf="http://www.w3.org/1999/02/22-rdf-syntax-ns#"
   xmlns:svg="http://www.w3.org/2000/svg"
   xmlns="http://www.w3.org/2000/svg"
   xmlns:sodipodi="http://sodipodi.sourceforge.net/DTD/sodipodi-0.dtd"
   xmlns:inkscape="http://www.inkscape.org/namespaces/inkscape"
   width="50"
   height="50"
   id="svg3210"
   version="1.1"
   inkscape:version="0.48.4 r"
   sodipodi:docname="New document 3">
  <defs
     id="defs3212" />
  <sodipodi:namedview
     id="base"
     pagecolor="#ffffff"
     bordercolor="#666666"
     borderopacity="1.0"
     inkscape:pageopacity="0.0"
     inkscape:pageshadow="2"
     inkscape:zoom="2.8"
     inkscape:cx="13.661627"
     inkscape:cy="15.660481"
     inkscape:document-units="px"
     inkscape:current-layer="layer1"
     showgrid="false"
     inkscape:window-width="586"
     inkscape:window-height="480"
     inkscape:window-x="313"
     inkscape:window-y="250"
     inkscape:window-maximized="0" />
  <metadata
     id="metadata3215">
    <rdf:RDF>
      <cc:Work
         rdf:about="">
        <dc:format>image/svg+xml</dc:format>
        <dc:type
           rdf:resource="http://purl.org/dc/dcmitype/StillImage" />
        <dc:title></dc:title>
      </cc:Work>
    </rdf:RDF>
  </metadata>
  <g
     inkscape:label="Layer 1"
     inkscape:groupmode="layer"
     id="layer1"
     transform="translate(0,-1002.3622)">
    <g
       transform="matrix(0.6133425,0,0,0.6133425,-199.23102,630.78825)"
       id="g7655">
      <path
         style="fill:#231f20"
         inkscape:connector-curvature="0"
         id="path7657"
         d="m 403.587,646.802 c 0,3.003 -2.437,5.436 -5.439,5.436 h -64.654 c -3.002,0 -5.438,-2.433 -5.438,-5.436 v -0.639 c 0,-3.006 2.436,-5.439 5.438,-5.439 h 64.654 c 3.003,0 5.439,2.434 5.439,5.439 v 0.639 z" />
      <path
         style="fill:#231f20"
         inkscape:connector-curvature="0"
         id="path7659"
         d="m 403.587,646.802 c 0,3.003 -2.437,5.436 -5.439,5.436 h -64.654 c -3.002,0 -5.438,-2.433 -5.438,-5.436 v -0.639 c 0,-3.006 2.436,-5.439 5.438,-5.439 h 64.654 c 3.003,0 5.439,2.434 5.439,5.439 v 0.639 z" />
      <path
         style="fill:#231f20"
         inkscape:connector-curvature="0"
         id="path7661"
         d="m 403.587,627.562 c 0,3.001 -2.437,5.437 -5.439,5.437 h -64.654 c -3.002,0 -5.438,-2.436 -5.438,-5.437 v -0.642 c 0,-3.003 2.436,-5.438 5.438,-5.438 h 64.654 c 3.003,0 5.439,2.436 5.439,5.438 v 0.642 z" />
      <path
         style="fill:#231f20"
         inkscape:connector-curvature="0"
         id="path7663"
         d="m 403.587,666.041 c 0,3.007 -2.437,5.44 -5.439,5.44 h -64.654 c -3.002,0 -5.438,-2.434 -5.438,-5.44 v -0.636 c 0,-3.004 2.436,-5.439 5.438,-5.439 h 64.654 c 3.003,0 5.439,2.436 5.439,5.439 v 0.636 z" />
    </g>
  </g>
</svg>
