<?xml version="1.0" encoding="UTF-8" standalone="no"?>
<!-- Created with Inkscape (http://www.inkscape.org/) -->

<svg
   xmlns:dc="http://purl.org/dc/elements/1.1/"
   xmlns:cc="http://creativecommons.org/ns#"
   xmlns:rdf="http://www.w3.org/1999/02/22-rdf-syntax-ns#"
   xmlns:svg="http://www.w3.org/2000/svg"
   xmlns="http://www.w3.org/2000/svg"
   xmlns:sodipodi="http://sodipodi.sourceforge.net/DTD/sodipodi-0.dtd"
   xmlns:inkscape="http://www.inkscape.org/namespaces/inkscape"
   width="66.90625"
   height="30.9375"
   id="svg9780"
   version="1.1"
   inkscape:version="0.48.4 r"
   sodipodi:docname="trailfinder_distance4_off.svg">
  <defs
     id="defs9782" />
  <sodipodi:namedview
     id="base"
     pagecolor="#ffffff"
     bordercolor="#666666"
     borderopacity="1.0"
     inkscape:pageopacity="0.0"
     inkscape:pageshadow="2"
     inkscape:zoom="2.8"
     inkscape:cx="70.417715"
     inkscape:cy="2.2740393"
     inkscape:document-units="px"
     inkscape:current-layer="layer1"
     showgrid="false"
     fit-margin-top="0"
     fit-margin-left="0"
     fit-margin-right="0"
     fit-margin-bottom="0"
     inkscape:window-width="484"
     inkscape:window-height="480"
     inkscape:window-x="1386"
     inkscape:window-y="482"
     inkscape:window-maximized="0" />
  <metadata
     id="metadata9785">
    <rdf:RDF>
      <cc:Work
         rdf:about="">
        <dc:format>image/svg+xml</dc:format>
        <dc:type
           rdf:resource="http://purl.org/dc/dcmitype/StillImage" />
        <dc:title></dc:title>
      </cc:Work>
    </rdf:RDF>
  </metadata>
  <g
     inkscape:label="Layer 1"
     inkscape:groupmode="layer"
     id="layer1"
     transform="translate(-609.0875,-563.30844)">
    <g
       id="g6106"
       transform="translate(519.025,492.08969)">
      <g
         id="g6097">
        <path
           style="fill:#efe7ce;stroke:#000000;stroke-width:1;stroke-miterlimit:10;stroke-dasharray:none"
           inkscape:connector-curvature="0"
           id="path1679"
           d="m 148.58784,71.70933 h -11.98172 -2.22022 -9.76151 -2.22022 -9.76151 -2.22022 -11.981722 c -4.349966,0 -7.876189,3.959362 -7.876189,8.843713 v 12.267493 c 0,4.884952 3.526822,8.843714 7.876189,8.843714 h 11.981722 2.22022 9.76151 2.22022 9.76151 2.22022 11.98172 c 4.34997,0 7.87559,-3.958163 7.87559,-8.843714 V 80.553043 c 0,-4.884351 -3.52562,-8.843713 -7.87559,-8.843713 z"
           stroke-miterlimit="10" />
        <path
           d="m 104.02599,82.438963 h -4.316417 l -0.436734,2.907366 c 0.2624,-0.03535 0.505629,-0.06949 0.923191,-0.06949 0.87047,0 1.74095,0.191708 2.43709,0.609271 0.88784,0.505629 1.61873,1.480342 1.61873,2.907965 0,2.210629 -1.75832,3.864707 -4.21278,3.864707 -1.235914,0 -2.280721,-0.348069 -2.819899,-0.696139 l 0.382816,-1.166421 c 0.470283,0.278575 1.392876,0.626645 2.420313,0.626645 1.44439,0 2.68031,-0.939967 2.68031,-2.455057 -0.0162,-1.46177 -0.99149,-2.506577 -3.255437,-2.506577 -0.643418,0 -1.149047,0.06949 -1.566611,0.121614 l 0.732084,-5.431317 h 5.413344 v 1.287437 z"
           id="path1786"
           inkscape:connector-curvature="0"
           style="fill:#231f20" />
        <path
           d="m 110.24031,87.192114 v 1.131075 h -4.30024 v -1.131075 h 4.30024 z"
           id="path1788"
           inkscape:connector-curvature="0"
           style="fill:#231f20" />
        <path
           d="m 114.87125,82.577951 h -0.0347 l -1.968,1.06218 -0.29535,-1.166421 2.47183,-1.322783 H 116.351 V 92.46707 h -1.47975 v -9.889119 z"
           id="path1790"
           inkscape:connector-curvature="0"
           style="fill:#231f20" />
        <path
           d="m 127.99724,86.687084 c 0,3.847333 -1.42823,5.971095 -3.9348,5.971095 -2.21063,0 -3.70775,-2.071641 -3.7431,-5.814733 0,-3.795213 1.63611,-5.883628 3.9342,-5.883628 2.38557,-5.99e-4 3.7437,2.123162 3.7437,5.727266 z m -6.14603,0.173735 c 0,2.942114 0.90522,4.613565 2.29809,4.613565 1.56661,0 2.31547,-1.828412 2.31547,-4.717806 0,-2.785152 -0.71351,-4.613564 -2.29809,-4.613564 -1.34016,0 -2.31547,1.636105 -2.31547,4.717805 z"
           id="path1792"
           inkscape:connector-curvature="0"
           style="fill:#231f20" />
        <path
           d="m 133.58432,86.321642 c 0,-0.871072 -0.018,-1.585183 -0.0701,-2.281321 h 1.34016 l 0.0701,1.358129 h 0.0515 c 0.47029,-0.80038 1.25449,-1.548639 2.64677,-1.548639 1.14905,0 2.01952,0.695539 2.38436,1.688226 h 0.0354 c 0.2618,-0.470283 0.59189,-0.835726 0.94056,-1.097527 0.50443,-0.382816 1.06099,-0.590699 1.86196,-0.590699 1.1143,0 2.76778,0.730886 2.76778,3.655625 v 4.961634 h -1.49711 v -4.769926 c 0,-1.61993 -0.5913,-2.594044 -1.82842,-2.594044 -0.87047,0 -1.54923,0.643419 -1.80984,1.392876 -0.0689,0.208482 -0.12161,0.487057 -0.12161,0.765632 v 5.204863 h -1.49652 V 87.41797 c 0,-1.341355 -0.59249,-2.315469 -1.75892,-2.315469 -0.95794,0 -1.65467,0.765632 -1.8985,1.531864 -0.0869,0.226454 -0.12162,0.487057 -0.12162,0.748858 v 5.083248 h -1.49651 v -6.144829 z"
           id="path1794"
           inkscape:connector-curvature="0"
           style="fill:#231f20" />
        <path
           d="m 149.80818,81.672731 c 0.0174,0.522403 -0.36485,0.939967 -0.97472,0.939967 -0.53918,0 -0.92319,-0.417564 -0.92319,-0.939967 0,-0.538579 0.40079,-0.95734 0.95854,-0.95734 0.57452,0 0.93937,0.418162 0.93937,0.95734 z m -1.7062,10.79374 v -8.42615 h 1.53246 v 8.42615 h -1.53246 z"
           id="path1796"
           inkscape:connector-curvature="0"
           style="fill:#231f20" />
      </g>
    </g>
  </g>
</svg>
