<?xml version="1.0" encoding="UTF-8" standalone="no"?>
<!-- Created with Inkscape (http://www.inkscape.org/) -->

<svg
   xmlns:dc="http://purl.org/dc/elements/1.1/"
   xmlns:cc="http://creativecommons.org/ns#"
   xmlns:rdf="http://www.w3.org/1999/02/22-rdf-syntax-ns#"
   xmlns:svg="http://www.w3.org/2000/svg"
   xmlns="http://www.w3.org/2000/svg"
   xmlns:sodipodi="http://sodipodi.sourceforge.net/DTD/sodipodi-0.dtd"
   xmlns:inkscape="http://www.inkscape.org/namespaces/inkscape"
   width="51"
   height="51"
   id="svg9780"
   version="1.1"
   inkscape:version="0.48.4 r"
   sodipodi:docname="button_radar.svg">
  <defs
     id="defs9782" />
  <sodipodi:namedview
     id="base"
     pagecolor="#ffffff"
     bordercolor="#666666"
     borderopacity="1.0"
     inkscape:pageopacity="0.0"
     inkscape:pageshadow="2"
     inkscape:zoom="2.8"
     inkscape:cx="27.329437"
     inkscape:cy="11.716662"
     inkscape:document-units="px"
     inkscape:current-layer="layer1"
     showgrid="false"
     fit-margin-top="0"
     fit-margin-left="0"
     fit-margin-right="0"
     fit-margin-bottom="0"
     inkscape:window-width="484"
     inkscape:window-height="480"
     inkscape:window-x="1386"
     inkscape:window-y="482"
     inkscape:window-maximized="0" />
  <metadata
     id="metadata9785">
    <rdf:RDF>
      <cc:Work
         rdf:about="">
        <dc:format>image/svg+xml</dc:format>
        <dc:type
           rdf:resource="http://purl.org/dc/dcmitype/StillImage" />
        <dc:title></dc:title>
      </cc:Work>
    </rdf:RDF>
  </metadata>
  <g
     inkscape:label="Layer 1"
     inkscape:groupmode="layer"
     id="layer1"
     transform="translate(-614.44544,-565.90694)">
    <g
       id="g7612"
       transform="translate(311.75794,83.750687)">
      <path
         stroke-miterlimit="10"
         d="m 353.17272,517.88023 c 0,8.153 -5.887,14.762 -13.147,14.762 l -23.706,0 c -7.261,0 -13.147,-6.608 -13.147,-14.762 l 0,-20.477 c 0,-8.153 5.886,-14.762 13.147,-14.762 l 23.706,0 c 7.26,0 13.147,6.608 13.147,14.762 l 0,20.477 z"
         id="path6562"
         inkscape:connector-curvature="0"
         style="fill:#efe7ce;stroke:#000000;stroke-miterlimit:10" />
      <g
         transform="translate(44.082839,423.90902)"
         id="g7048">
        <g
           id="g7050">
          <path
             d="m 287.69,68.306 c 0.613,1.457 -0.124,3.16 -1.644,3.799 -1.521,0.64 -3.254,-0.023 -3.87,-1.479 -0.613,-1.46 0.127,-3.16 1.648,-3.804 1.52,-0.637 3.253,0.023 3.866,1.484 z"
             id="path7052"
             inkscape:connector-curvature="0" />
          <path
             d="m 270.304,85.472 c -4.135,1.739 -6.119,6.426 -4.418,10.467 1.698,4.036 6.434,5.898 10.57,4.158 4.143,-1.743 6.119,-6.427 4.421,-10.463 -1.699,-4.041 -6.43,-5.905 -10.573,-4.162 z m 5.384,12.795 c -3.103,1.306 -6.653,-0.092 -7.926,-3.118 -1.276,-3.027 0.206,-6.545 3.311,-7.848 3.106,-1.309 6.658,0.092 7.934,3.12 1.273,3.028 -0.211,6.538 -3.319,7.846 z"
             id="path7054"
             inkscape:connector-curvature="0" />
          <path
             d="m 291.726,85.607 c -4.141,1.742 -6.119,6.426 -4.421,10.468 1.699,4.036 6.432,5.9 10.573,4.158 4.137,-1.74 6.113,-6.43 4.418,-10.466 -1.7,-4.04 -6.432,-5.9 -10.57,-4.16 z m 5.384,12.798 c -3.108,1.306 -6.658,-0.094 -7.931,-3.12 -1.276,-3.03 0.211,-6.54 3.314,-7.849 3.103,-1.303 6.655,0.092 7.931,3.121 1.273,3.026 -0.211,6.543 -3.314,7.848 z"
             id="path7056"
             inkscape:connector-curvature="0" />
          <path
             d="m 292.034,78.292 c -0.035,0.005 -0.062,0.025 -0.091,0.037 0.543,0.494 0.764,1.175 0.474,1.673 -0.261,0.462 -0.869,0.631 -1.51,0.489 l -7.873,2.532 -4.826,1.562 -0.359,0.114 c -0.025,0.007 -0.05,0.024 -0.079,0.037 -0.072,0.02 -0.139,0.06 -0.174,0.124 l -4.456,7.633 -0.077,0.027 c -0.072,0.025 -0.099,0.142 -0.084,0.28 -0.035,0.114 0.012,0.241 0.117,0.34 0.084,0.137 0.191,0.219 0.272,0.187 l 5.615,-2.119 c 0.03,-0.013 0.05,-0.033 0.07,-0.068 0.04,-0.02 0.082,-0.036 0.119,-0.071 l 3.492,-2.782 3.155,-2.513 5.804,-4.626 c 0.086,-0.068 0.221,-0.096 0.221,-0.096 l 2.237,11.409 c 0.059,0.305 0.394,0.494 0.759,0.425 0.36,-0.07 0.605,-0.367 0.543,-0.678 l -2.591,-13.484 c -0.061,-0.308 -0.398,-0.501 -0.758,-0.432 z m -6.437,6.641 -2.991,2.385 -3.867,3.083 c -0.022,-0.003 -0.04,-0.005 -0.06,0 l -4.364,1.646 3.865,-6.626 1.078,-0.345 4.828,-1.554 5.513,-1.778 -4.002,3.189 z"
             id="path7058"
             inkscape:connector-curvature="0" />
          <g
             id="g7060">
            <path
               d="m 282.979,93.623 c 0.06,1.005 0.844,1.774 1.752,1.72 0.906,-0.053 1.588,-0.911 1.534,-1.911 l -0.446,-7.658 -3.155,2.513 0.315,5.336 z"
               id="path7062"
               inkscape:connector-curvature="0" />
            <path
               d="m 284.542,83.735 -0.457,-0.213 -4.828,1.554 3.311,1.562 0.037,0.68 2.991,-2.385 c -0.022,-0.048 -0.04,-0.1 -0.062,-0.142 -0.17,-0.441 -0.513,-0.827 -0.992,-1.056 z"
               id="path7064"
               inkscape:connector-curvature="0" />
            <path
               d="m 291.942,78.329 c -0.127,-0.108 -0.256,-0.213 -0.41,-0.305 l -9.311,-5.35 c -0.834,-0.481 -1.799,-0.38 -2.149,0.232 -0.159,0.284 -1.5,2.012 -2.123,2.862 l -1.653,2.257 c -0.98,1.335 -1.417,2.793 -1.275,3.893 -0.005,0.675 0.409,1.353 1.109,1.683 l 2.077,0.983 4.826,-1.562 -2.944,-1.383 c 0.149,-0.169 0.295,-0.335 0.43,-0.517 l 1.653,-2.258 c 0.628,-0.854 1.022,-1.761 1.199,-2.59 l 6.896,3.962 c 0.208,0.119 0.424,0.209 0.64,0.253 0.641,0.142 1.249,-0.027 1.51,-0.489 0.29,-0.496 0.068,-1.177 -0.475,-1.671 z"
               id="path7066"
               inkscape:connector-curvature="0" />
          </g>
        </g>
      </g>
    </g>
  </g>
</svg>
