<?xml version="1.0" encoding="UTF-8" standalone="no"?>
<!-- Generator: Adobe Illustrator 16.0.0, SVG Export Plug-In . SVG Version: 6.00 Build 0)  -->

<svg
   xmlns:dc="http://purl.org/dc/elements/1.1/"
   xmlns:cc="http://creativecommons.org/ns#"
   xmlns:rdf="http://www.w3.org/1999/02/22-rdf-syntax-ns#"
   xmlns:svg="http://www.w3.org/2000/svg"
   xmlns="http://www.w3.org/2000/svg"
   xmlns:sodipodi="http://sodipodi.sourceforge.net/DTD/sodipodi-0.dtd"
   version="1.1"
   x="0px"
   y="0px"
   width="50"
   height="50"
   viewBox="0 0 49.999816 49.999107"
   enable-background="new 0 0 823 1079"
   xml:space="preserve"><sodipodi:namedview
     pagecolor="#ffffff"
     bordercolor="#666666"
     borderopacity="1"
     objecttolerance="10"
     gridtolerance="10"
     guidetolerance="10"
     showgrid="false"
     fit-margin-top="0"
     fit-margin-left="0"
     fit-margin-right="0"
     fit-margin-bottom="0" /><g
     transform="translate(-219.51606,-52.248255)"><path
       style="fill:#AB8E5A;stroke:#000000;stroke-miterlimit:10"
       d="m 188.033,93.262 c 0,8.153 -5.886,14.762 -13.147,14.762 l -23.706,0 c -7.261,0 -13.147,-6.608 -13.147,-14.762 l 0,-20.477 c 0,-8.153 5.886,-14.762 13.147,-14.762 l 23.706,0 c 7.261,0 13.147,6.608 13.147,14.762 l 0,20.477 z"
       stroke-miterlimit="10" /><g
       ><ellipse
         ry="3.6070001"
         rx="3.6359999"
         cy="66.135002"
         cx="165.653"
         d="m 169.289,66.135002 c 0,1.992091 -1.62789,3.607 -3.636,3.607 -2.00811,0 -3.636,-1.614909 -3.636,-3.607 0,-1.992091 1.62789,-3.607 3.636,-3.607 2.00811,0 3.636,1.614909 3.636,3.607 z"
         sodipodi:cx="165.653"
         sodipodi:cy="66.135002"
         sodipodi:rx="3.6359999"
         sodipodi:ry="3.6070001" /><path
         d="m 172.832,84.238 0.122,-0.183 c 0.443,-0.61 0.119,-1.403 -0.382,-1.766 l -0.094,-0.089 -1.011,2.399 c 0.461,0.178 1.013,0.123 1.365,-0.361 z" /><path
         d="m 163.64,83.978 c 0.563,-1.176 1.043,-2.592 1.403,-4.154 l 0.101,0.202 c 0.104,0.198 0.669,0.811 0.838,0.933 l 3.891,2.616 1.145,-2.707 -2.586,-2.369 c -0.01,-0.03 -2.098,-4.139 -3.113,-6.137 -0.342,-1.214 -0.96,-2.029 -1.877,-2.236 -0.805,-0.181 -2.409,-0.071 -3.227,0.609 -1.515,1.262 -2.345,3.992 -3.044,7.083 -0.441,1.95 -1.069,4.146 -0.871,5.709 0.154,1.221 0.699,2.155 1.378,2.81 -0.75,2.996 -1.999,7.976 -2.001,8.014 l -4.162,6.026 c -0.534,0.607 -0.714,1.71 0.031,2.358 l 0.208,0.194 c 0.742,0.653 1.694,0.335 2.227,-0.273 l 5.529,-5.89 c 0.18,-0.207 0.719,-1.146 0.793,-1.431 l 1.431,-5.696 c 1.489,2.229 3.171,4.739 3.435,5.121 l 2.196,-5.218 -3.725,-5.564 z" /><path
         d="m 166.877,101.946 c 0.094,0.798 0.785,1.672 1.768,1.558 l 0.287,-0.023 c 0.982,-0.113 1.383,-1.033 1.287,-1.836 l -0.653,-8.053 c -0.033,-0.273 -0.368,-1.302 -0.53,-1.545 l -0.431,-0.646 -2.697,6.408 0.969,4.137 z" /><path
         d="m 174.575,74.841 c -0.38,-0.162 -0.828,0.04 -1,0.446 l -3.047,7.219 -0.91,2.168 -2.014,4.774 -1.755,4.175 -3.68,8.673 c -0.17,0.407 -0.002,0.868 0.377,1.028 0.38,0.159 0.826,-0.041 0.998,-0.448 l 2.895,-6.816 2.161,-5.124 2.29,-5.441 0.808,-1.92 3.252,-7.705 c 0.172,-0.411 0.005,-0.87 -0.375,-1.029 z" /><g
         ><path
           d="m 158.937,69.152 c -4.785,-0.806 -6.74,3.546 -7.645,7.213 -0.876,3.547 0.674,5.654 3.731,5.654 0.038,0 0.079,0 0.119,-0.003 0.02,-1.474 0.534,-3.315 0.907,-4.978 0.699,-3.087 1.53,-5.818 3.044,-7.079 0.292,-0.238 0.676,-0.405 1.092,-0.52 0.028,-0.027 0.056,-0.058 0.086,-0.089 -0.218,-0.081 -1.033,-0.145 -1.334,-0.198 z" /></g></g></g><g
     transform="matrix(0.98039216,0,0,1,-44.376594,-51.375065)"><path
       style="fill:#AB8E5A;stroke:#000000;stroke-miterlimit:10"
       d="m 128.033,93.262 c 0,8.153 -5.886,14.762 -13.147,14.762 l -23.706,0 c -7.261,0 -13.147,-6.608 -13.147,-14.762 l 0,-20.477 c 0,-8.153 5.886,-14.762 13.147,-14.762 l 23.706,0 c 7.261,0 13.147,6.608 13.147,14.762 l 0,20.477 z"
       stroke-miterlimit="10" /><g><path
         style="fill-rule:evenodd"
         d="m 101.406,76.705 c 0,0.708 -0.016,1.358 0.015,2.007 0.005,0.105 0.212,0.289 0.328,0.291 1.126,0.022 2.254,0.03 3.379,-0.001 0.197,-0.005 0.426,-0.181 0.577,-0.337 3.314,-3.417 6.621,-6.842 9.925,-10.27 0.135,-0.139 0.228,-0.32 0.339,-0.482 0.061,0.037 0.123,0.075 0.184,0.113 -0.075,0.689 -0.125,1.384 -0.233,2.069 -0.072,0.454 0.056,0.722 0.452,0.978 1.649,1.062 3.287,2.144 4.902,3.256 1.221,0.841 1.13,2.581 -0.173,3.161 -0.437,0.194 -0.974,0.167 -1.578,0.257 0.002,-0.006 -0.068,0.117 -0.116,0.248 -0.821,2.25 -2.953,3.514 -5.299,3.109 -0.351,-0.059 -0.518,0.029 -0.671,0.346 -1.209,2.502 -2.441,4.992 -3.648,7.496 -0.121,0.249 -0.176,0.553 -0.177,0.832 -0.012,3.508 -0.004,7.016 -0.015,10.523 -10e-4,0.339 -0.034,0.699 -0.154,1.012 -0.281,0.727 -1.089,1.143 -1.863,1.021 -0.76,-0.12 -1.351,-0.722 -1.449,-1.493 -0.028,-0.215 -0.022,-0.436 -0.022,-0.652 -10e-4,-3.473 -10e-4,-6.943 -10e-4,-10.414 0,-0.217 0,-0.432 0,-0.71 -0.206,-0.015 -0.378,-0.037 -0.551,-0.037 -2.635,-0.003 -5.271,0.005 -7.905,-0.011 -0.356,-0.002 -0.563,0.105 -0.732,0.422 -0.333,0.623 -0.685,1.241 -1.071,1.834 -0.226,0.344 -0.231,0.631 -0.072,1.006 1.063,2.488 2.118,4.98 3.134,7.489 0.16,0.394 0.206,0.894 0.127,1.311 -0.137,0.723 -0.806,1.198 -1.54,1.249 -0.737,0.051 -1.415,-0.359 -1.727,-1.088 -0.745,-1.735 -1.491,-3.471 -2.208,-5.217 -0.847,-2.065 -2.122,-4.025 -1.499,-6.468 -0.076,-0.007 -0.152,-0.015 -0.229,-0.023 -0.233,0.366 -0.433,0.759 -0.706,1.091 -0.775,0.951 -1.004,2.008 -0.958,3.231 0.084,2.231 0.037,4.47 0.017,6.705 -0.012,1.325 -1.242,2.157 -2.413,1.653 -0.658,-0.283 -1.059,-0.805 -1.063,-1.519 -0.021,-3.235 -0.019,-6.47 10e-4,-9.704 0.001,-0.244 0.162,-0.523 0.325,-0.723 0.92,-1.123 1.235,-2.377 1.138,-3.833 -0.107,-1.61 -0.024,-3.233 -0.024,-4.851 0,-0.195 0,-0.391 0,-0.586 -0.048,-0.013 -0.096,-0.025 -0.144,-0.039 -0.5,0.987 -1.441,1.711 -1.348,3.047 0.112,1.592 0.026,3.196 0.026,4.796 0,0.177 0,0.354 0,0.563 -0.932,0 -1.811,0 -2.731,0 -0.01,-0.228 -0.026,-0.421 -0.026,-0.615 -0.002,-1.854 -0.005,-3.708 0,-5.562 0.006,-2.518 1.646,-4.162 4.161,-4.167 2.417,-0.005 4.834,-0.001 7.251,-0.001 0.216,0 0.432,0 0.712,0 0.014,-0.25 0.033,-0.459 0.034,-0.667 0.003,-1.745 -0.024,-3.49 0.011,-5.233 0.038,-1.879 1.708,-3.098 3.45,-2.563 1.125,0.346 1.874,1.355 1.832,2.668 -0.021,0.651 0.205,0.875 0.802,0.997 1.031,0.212 2.047,0.497 3.063,0.771 0.79,0.213 1.207,0.837 1.055,1.53 -0.158,0.724 -0.821,1.117 -1.649,0.938 -1.06,-0.23 -2.115,-0.489 -3.245,-0.754 z m 12.727,3.372 c 1.764,0.631 4.203,-0.887 4.359,-2.682 -0.811,-0.156 -1.625,-0.319 -2.444,-0.461 -0.119,-0.021 -0.329,0.026 -0.372,0.107 -0.526,1.003 -1.03,2.019 -1.543,3.036 z" /><path
         style="fill-rule:evenodd"
         d="m 101.43,67.16 c -0.031,1.45 -1.235,2.601 -2.691,2.569 -1.454,-0.029 -2.602,-1.225 -2.575,-2.682 0.027,-1.463 1.217,-2.627 2.661,-2.604 1.476,0.023 2.637,1.235 2.605,2.717 z" /></g></g><g
     transform="matrix(0.98038859,0,0,0.98037466,-252.4807,-56.40218)"><path
       stroke-miterlimit="10"
       d="m 308.033,93.262 c 0,8.153 -5.887,14.762 -13.147,14.762 l -23.706,0 c -7.261,0 -13.147,-6.608 -13.147,-14.762 l 0,-20.477 c 0,-8.153 5.886,-14.762 13.147,-14.762 l 23.706,0 c 7.26,0 13.147,6.608 13.147,14.762 l 0,20.477 z"
       style="fill:#AB8E5A;stroke:#000000;stroke-miterlimit:10" /><g><g><path
           d="m 287.69,68.306 c 0.613,1.457 -0.124,3.16 -1.644,3.799 -1.521,0.64 -3.254,-0.023 -3.87,-1.479 -0.613,-1.46 0.127,-3.16 1.648,-3.804 1.52,-0.637 3.253,0.023 3.866,1.484 z"
           /><path
           d="m 270.304,85.472 c -4.135,1.739 -6.119,6.426 -4.418,10.467 1.698,4.036 6.434,5.898 10.57,4.158 4.143,-1.743 6.119,-6.427 4.421,-10.463 -1.699,-4.041 -6.43,-5.905 -10.573,-4.162 z m 5.384,12.795 c -3.103,1.306 -6.653,-0.092 -7.926,-3.118 -1.276,-3.027 0.206,-6.545 3.311,-7.848 3.106,-1.309 6.658,0.092 7.934,3.12 1.273,3.028 -0.211,6.538 -3.319,7.846 z"
           /><path
           d="m 291.726,85.607 c -4.141,1.742 -6.119,6.426 -4.421,10.468 1.699,4.036 6.432,5.9 10.573,4.158 4.137,-1.74 6.113,-6.43 4.418,-10.466 -1.7,-4.04 -6.432,-5.9 -10.57,-4.16 z m 5.384,12.798 c -3.108,1.306 -6.658,-0.094 -7.931,-3.12 -1.276,-3.03 0.211,-6.54 3.314,-7.849 3.103,-1.303 6.655,0.092 7.931,3.121 1.273,3.026 -0.211,6.543 -3.314,7.848 z"
           /><path
           d="m 292.034,78.292 c -0.035,0.005 -0.062,0.025 -0.091,0.037 0.543,0.494 0.764,1.175 0.474,1.673 -0.261,0.462 -0.869,0.631 -1.51,0.489 l -7.873,2.532 -4.826,1.562 -0.359,0.114 c -0.025,0.007 -0.05,0.024 -0.079,0.037 -0.072,0.02 -0.139,0.06 -0.174,0.124 l -4.456,7.633 -0.077,0.027 c -0.072,0.025 -0.099,0.142 -0.084,0.28 -0.035,0.114 0.012,0.241 0.117,0.34 0.084,0.137 0.191,0.219 0.272,0.187 l 5.615,-2.119 c 0.03,-0.013 0.05,-0.033 0.07,-0.068 0.04,-0.02 0.082,-0.036 0.119,-0.071 l 3.492,-2.782 3.155,-2.513 5.804,-4.626 c 0.086,-0.068 0.221,-0.096 0.221,-0.096 l 2.237,11.409 c 0.059,0.305 0.394,0.494 0.759,0.425 0.36,-0.07 0.605,-0.367 0.543,-0.678 l -2.591,-13.484 c -0.061,-0.308 -0.398,-0.501 -0.758,-0.432 z m -6.437,6.641 -2.991,2.385 -3.867,3.083 c -0.022,-0.003 -0.04,-0.005 -0.06,0 l -4.364,1.646 3.865,-6.626 1.078,-0.345 4.828,-1.554 5.513,-1.778 -4.002,3.189 z"
           /><g><path
             d="m 282.979,93.623 c 0.06,1.005 0.844,1.774 1.752,1.72 0.906,-0.053 1.588,-0.911 1.534,-1.911 l -0.446,-7.658 -3.155,2.513 0.315,5.336 z"
             /><path
             d="m 284.542,83.735 -0.457,-0.213 -4.828,1.554 3.311,1.562 0.037,0.68 2.991,-2.385 c -0.022,-0.048 -0.04,-0.1 -0.062,-0.142 -0.17,-0.441 -0.513,-0.827 -0.992,-1.056 z"
             /><path
             d="m 291.942,78.329 c -0.127,-0.108 -0.256,-0.213 -0.41,-0.305 l -9.311,-5.35 c -0.834,-0.481 -1.799,-0.38 -2.149,0.232 -0.159,0.284 -1.5,2.012 -2.123,2.862 l -1.653,2.257 c -0.98,1.335 -1.417,2.793 -1.275,3.893 -0.005,0.675 0.409,1.353 1.109,1.683 l 2.077,0.983 4.826,-1.562 -2.944,-1.383 c 0.149,-0.169 0.295,-0.335 0.43,-0.517 l 1.653,-2.258 c 0.628,-0.854 1.022,-1.761 1.199,-2.59 l 6.896,3.962 c 0.208,0.119 0.424,0.209 0.64,0.253 0.641,0.142 1.249,-0.027 1.51,-0.489 0.29,-0.496 0.068,-1.177 -0.475,-1.671 z"
             /></g></g></g></g><g transform="matrix(0.9804099,0,0,0.98037441,-195.54647,-118.95334)"><path
       stroke-miterlimit="10"
       d="m 368.033,93.262 c 0,8.153 -5.887,14.762 -13.146,14.762 l -23.707,0 c -7.26,0 -13.146,-6.608 -13.146,-14.762 l 0,-20.477 c 0,-8.153 5.887,-14.762 13.146,-14.762 l 23.707,0 c 7.26,0 13.146,6.608 13.146,14.762 l 0,20.477 z"
       style="fill:#AB8E5A;stroke:#000000;stroke-miterlimit:10" /><g><path
         d="m 325.521,84.039 0,15.275 32.359,0 c 0,0 -0.931,-1.46 -3.325,-1.809 -3.018,-0.436 -4.811,-0.98 -7.403,-2.272 -2.952,-1.471 -5.188,-1.34 -5.889,-2.915 l -2.449,0.466 c 0,0 -1.334,0.349 -3.29,-1.457 -1.957,-1.807 -2.483,-2.203 -2.483,-2.203 l -2.273,-1.266 -1.572,-1.837 c 0,0 -0.702,-0.49 -1.225,-0.827 -0.525,-0.341 -0.934,-1.33 -1.166,-1.155 -0.236,0.174 -1.284,0 -1.284,0 z"
         /><g><path
           d="m 356.157,67.254 c -0.007,1.388 -1.19,2.508 -2.636,2.499 -1.449,-0.007 -2.619,-1.14 -2.613,-2.527 0.01,-1.391 1.192,-2.508 2.641,-2.501 1.447,0.007 2.617,1.138 2.608,2.529 z"
           /><path
           d="m 336.206,75.115 c -3.938,-0.022 -7.155,3.078 -7.177,6.926 -0.021,3.844 3.159,6.979 7.099,7 3.943,0.022 7.155,-3.078 7.177,-6.922 0.021,-3.848 -3.156,-6.982 -7.099,-7.004 z m -0.067,12.186 c -2.955,-0.018 -5.338,-2.368 -5.322,-5.251 0.015,-2.885 2.424,-5.212 5.379,-5.194 2.959,0.016 5.342,2.371 5.327,5.255 -0.015,2.882 -2.425,5.205 -5.384,5.19 z"
           /><path
           d="m 353.449,82.612 c -3.941,-0.022 -7.155,3.076 -7.178,6.924 -0.021,3.843 3.158,6.98 7.099,7.003 3.942,0.021 7.153,-3.081 7.175,-6.925 0.021,-3.847 -3.154,-6.98 -7.096,-7.002 z m -0.068,12.186 c -2.956,-0.018 -5.34,-2.37 -5.324,-5.253 0.016,-2.885 2.425,-5.207 5.381,-5.192 2.955,0.018 5.341,2.369 5.325,5.254 -0.015,2.881 -2.427,5.208 -5.382,5.191 z"
           /><path
           d="m 356.221,76.813 c -0.031,-0.007 -0.06,0 -0.087,0 0.268,0.586 0.211,1.211 -0.194,1.514 -0.371,0.281 -0.92,0.209 -1.388,-0.126 l -7.228,-0.672 -4.434,-0.404 -0.329,-0.031 c -0.024,-0.002 -0.05,0.002 -0.079,0.002 -0.064,-0.008 -0.132,0 -0.183,0.04 l -6.227,4.626 -0.071,-0.005 c -0.068,-0.005 -0.131,0.08 -0.166,0.198 -0.068,0.078 -0.074,0.198 -0.024,0.313 0.022,0.14 0.081,0.242 0.157,0.244 l 5.264,0.227 c 0.028,0 0.051,-0.011 0.078,-0.03 0.039,-0.002 0.078,-0.002 0.123,-0.018 l 3.777,-1.041 3.412,-0.941 6.281,-1.732 c 0.092,-0.023 0.209,0 0.209,0 l -2.129,9.979 c -0.057,0.269 0.148,0.536 0.467,0.606 0.316,0.067 0.616,-0.09 0.674,-0.36 l 2.558,-11.778 c 0.058,-0.27 -0.148,-0.542 -0.461,-0.611 z m -7.485,3.141 -3.237,0.893 -4.186,1.155 c -0.018,-0.009 -0.03,-0.018 -0.048,-0.02 l -4.09,-0.177 5.403,-4.016 0.989,0.094 4.434,0.41 5.063,0.466 -4.328,1.195 z"
           /><g><path
             d="m 343.625,86.065 c -0.299,0.832 0.07,1.724 0.821,1.991 0.749,0.272 1.597,-0.185 1.897,-1.013 l 2.279,-6.336 -3.412,0.941 -1.585,4.417 z"
             /><path
             d="m 348.296,78.625 -0.294,-0.331 -4.434,-0.41 2.135,2.401 -0.204,0.562 3.237,-0.893 c -0.002,-0.046 0.002,-0.094 -0.002,-0.138 0.013,-0.414 -0.129,-0.842 -0.438,-1.191 z"
             /><path
             d="M 356.134,76.813 C 356.071,76.679 356,76.551 355.908,76.425 l -5.671,-7.528 c -0.507,-0.678 -1.322,-0.928 -1.817,-0.554 -0.225,0.172 -1.902,1.104 -2.699,1.578 l -2.111,1.25 c -1.252,0.741 -2.106,1.768 -2.373,2.702 -0.236,0.544 -0.135,1.235 0.316,1.743 l 1.338,1.508 4.434,0.404 -1.899,-2.13 c 0.179,-0.085 0.354,-0.171 0.524,-0.271 l 2.113,-1.253 c 0.803,-0.473 1.432,-1.067 1.859,-1.675 l 4.2,5.575 c 0.129,0.167 0.272,0.313 0.43,0.425 0.468,0.335 1.017,0.407 1.388,0.126 0.405,-0.302 0.461,-0.927 0.194,-1.512 z"
             /></g></g></g></g></svg>