<?xml version="1.0" encoding="UTF-8" standalone="no"?>
<!-- Generator: Adobe Illustrator 16.0.0, SVG Export Plug-In . SVG Version: 6.00 Build 0)  -->

<svg
   xmlns:dc="http://purl.org/dc/elements/1.1/"
   xmlns:cc="http://creativecommons.org/ns#"
   xmlns:rdf="http://www.w3.org/1999/02/22-rdf-syntax-ns#"
   xmlns:svg="http://www.w3.org/2000/svg"
   xmlns="http://www.w3.org/2000/svg"
   xmlns:sodipodi="http://sodipodi.sourceforge.net/DTD/sodipodi-0.dtd"
   xmlns:inkscape="http://www.inkscape.org/namespaces/inkscape"
   version="1.1"
   x="0px"
   y="0px"
   width="50"
   height="50"
   viewBox="0 0 50 50"
   enable-background="new 0 0 823 1079"
   xml:space="preserve"><sodipodi:namedview
     pagecolor="#ffffff"
     bordercolor="#666666"
     borderopacity="1"
     objecttolerance="10"
     gridtolerance="10"
     guidetolerance="10"
     showgrid="false"
     fit-margin-top="0"
     fit-margin-left="0"
     fit-margin-right="0"
     fit-margin-bottom="0" /><g
     transform="matrix(0.98039217,0,0,0.98056237,-134.83456,-56.412979)"><path
       style="fill:none;stroke:#000000;stroke-miterlimit:10"
       d="m 188.033,93.262 c 0,8.153 -5.886,14.762 -13.147,14.762 l -23.706,0 c -7.261,0 -13.147,-6.608 -13.147,-14.762 l 0,-20.477 c 0,-8.153 5.886,-14.762 13.147,-14.762 l 23.706,0 c 7.261,0 13.147,6.608 13.147,14.762 l 0,20.477 z"
       stroke-miterlimit="10" /><g><ellipse
         ry="3.6070001"
         rx="3.6359999"
         cy="66.135002"
         cx="165.653"
         d="m 169.289,66.135002 c 0,1.992091 -1.62789,3.607 -3.636,3.607 -2.00811,0 -3.636,-1.614909 -3.636,-3.607 0,-1.992091 1.62789,-3.607 3.636,-3.607 2.00811,0 3.636,1.614909 3.636,3.607 z"
         sodipodi:cx="165.653"
         sodipodi:cy="66.135002"
         sodipodi:rx="3.6359999"
         sodipodi:ry="3.6070001" /><path
         d="m 172.832,84.238 0.122,-0.183 c 0.443,-0.61 0.119,-1.403 -0.382,-1.766 l -0.094,-0.089 -1.011,2.399 c 0.461,0.178 1.013,0.123 1.365,-0.361 z" /><path
         d="m 163.64,83.978 c 0.563,-1.176 1.043,-2.592 1.403,-4.154 l 0.101,0.202 c 0.104,0.198 0.669,0.811 0.838,0.933 l 3.891,2.616 1.145,-2.707 -2.586,-2.369 c -0.01,-0.03 -2.098,-4.139 -3.113,-6.137 -0.342,-1.214 -0.96,-2.029 -1.877,-2.236 -0.805,-0.181 -2.409,-0.071 -3.227,0.609 -1.515,1.262 -2.345,3.992 -3.044,7.083 -0.441,1.95 -1.069,4.146 -0.871,5.709 0.154,1.221 0.699,2.155 1.378,2.81 -0.75,2.996 -1.999,7.976 -2.001,8.014 l -4.162,6.026 c -0.534,0.607 -0.714,1.71 0.031,2.358 l 0.208,0.194 c 0.742,0.653 1.694,0.335 2.227,-0.273 l 5.529,-5.89 c 0.18,-0.207 0.719,-1.146 0.793,-1.431 l 1.431,-5.696 c 1.489,2.229 3.171,4.739 3.435,5.121 l 2.196,-5.218 -3.725,-5.564 z" /><path
         d="m 166.877,101.946 c 0.094,0.798 0.785,1.672 1.768,1.558 l 0.287,-0.023 c 0.982,-0.113 1.383,-1.033 1.287,-1.836 l -0.653,-8.053 c -0.033,-0.273 -0.368,-1.302 -0.53,-1.545 l -0.431,-0.646 -2.697,6.408 0.969,4.137 z" /><path
         d="m 174.575,74.841 c -0.38,-0.162 -0.828,0.04 -1,0.446 l -3.047,7.219 -0.91,2.168 -2.014,4.774 -1.755,4.175 -3.68,8.673 c -0.17,0.407 -0.002,0.868 0.377,1.028 0.38,0.159 0.826,-0.041 0.998,-0.448 l 2.895,-6.816 2.161,-5.124 2.29,-5.441 0.808,-1.92 3.252,-7.705 c 0.172,-0.411 0.005,-0.87 -0.375,-1.029 z" /><g><path
           d="m 158.937,69.152 c -4.785,-0.806 -6.74,3.546 -7.645,7.213 -0.876,3.547 0.674,5.654 3.731,5.654 0.038,0 0.079,0 0.119,-0.003 0.02,-1.474 0.534,-3.315 0.907,-4.978 0.699,-3.087 1.53,-5.818 3.044,-7.079 0.292,-0.238 0.676,-0.405 1.092,-0.52 0.028,-0.027 0.056,-0.058 0.086,-0.089 -0.218,-0.081 -1.033,-0.145 -1.334,-0.198 z" /></g></g></g></svg>