<?xml version="1.0" encoding="utf-8"?>
<!-- Generator: Adobe Illustrator 16.0.0, SVG Export Plug-In . SVG Version: 6.00 Build 0)  -->
<!DOCTYPE svg PUBLIC "-//W3C//DTD SVG 1.1//EN" "http://www.w3.org/Graphics/SVG/1.1/DTD/svg11.dtd">
<svg version="1.1"
	 id="svg9780" xmlns:sodipodi="http://sodipodi.sourceforge.net/DTD/sodipodi-0.dtd" xmlns:inkscape="http://www.inkscape.org/namespaces/inkscape" xmlns:cc="http://creativecommons.org/ns#" xmlns:dc="http://purl.org/dc/elements/1.1/" xmlns:svg="http://www.w3.org/2000/svg" xmlns:rdf="http://www.w3.org/1999/02/22-rdf-syntax-ns#" inkscape:version="0.48.4 r" sodipodi:docname="directions_bridle_active.svg"
	 xmlns="http://www.w3.org/2000/svg" xmlns:xlink="http://www.w3.org/1999/xlink" x="0px" y="0px" width="51px" height="51px"
	 viewBox="0 0 51 51" enable-background="new 0 0 51 51" xml:space="preserve">
<path id="path6562_1_" inkscape:connector-curvature="0" opacity="0.5" d="M51,36.269c0,7.997-5.775,14.48-12.897,14.48H14.848
	c-7.123,0-12.896-6.482-12.896-14.48V16.18c0-7.999,5.773-14.482,12.896-14.482h23.255C45.225,1.698,51,8.181,51,16.18V36.269z"/>
<path id="path6562" inkscape:connector-curvature="0" fill="#004E41" d="M49.785,35.055c0,7.997-5.775,14.48-12.897,14.48H13.634
	c-7.124,0-12.897-6.482-12.897-14.48V14.967c0-7.999,5.773-14.482,12.897-14.482h23.254c7.122,0,12.897,6.482,12.897,14.482V35.055z
	"/>
<sodipodi:namedview  id="base" fit-margin-left="0" fit-margin-top="0" fit-margin-bottom="0" inkscape:document-units="px" fit-margin-right="0" inkscape:window-width="484" inkscape:window-height="480" inkscape:window-maximized="0" inkscape:pageopacity="0.0" inkscape:window-y="482" inkscape:current-layer="layer1" inkscape:window-x="1386" inkscape:pageshadow="2" bordercolor="#666666" inkscape:cx="41.433496" borderopacity="1.0" pagecolor="#ffffff" inkscape:cy="-2.6852814" showgrid="false" inkscape:zoom="1.979899">
	</sodipodi:namedview>
<g id="g7068" transform="translate(97.962508,425.62225)">
	<path id="path7070" inkscape:connector-curvature="0" fill="#FFFFFF" d="M-89.979-398.117v15.275h32.359c0,0-0.931-1.46-3.325-1.81
		c-3.018-0.436-4.811-0.979-7.402-2.271c-2.953-1.471-5.188-1.34-5.89-2.915l-2.449,0.466c0,0-1.334,0.35-3.29-1.457
		c-1.957-1.807-2.483-2.203-2.483-2.203l-2.273-1.266l-1.572-1.837c0,0-0.702-0.49-1.225-0.827c-0.525-0.341-0.934-1.33-1.166-1.155
		C-88.931-397.943-89.979-398.117-89.979-398.117L-89.979-398.117z"/>
	<g id="g7072">
		<path id="path7074" inkscape:connector-curvature="0" fill="#FFFFFF" d="M-59.343-414.902c-0.006,1.388-1.189,2.508-2.636,2.499
			c-1.448-0.007-2.618-1.14-2.612-2.527c0.01-1.391,1.191-2.508,2.641-2.501C-60.504-417.424-59.334-416.293-59.343-414.902z"/>
		<path id="path7076" inkscape:connector-curvature="0" fill="#FFFFFF" d="M-79.294-407.041c-3.938-0.022-7.155,3.078-7.177,6.926
			c-0.021,3.845,3.159,6.979,7.099,7c3.943,0.022,7.155-3.077,7.177-6.922C-72.174-403.885-75.351-407.019-79.294-407.041z
			 M-79.361-394.855c-2.955-0.019-5.338-2.369-5.322-5.251c0.015-2.885,2.424-5.212,5.379-5.194
			c2.959,0.016,5.342,2.371,5.327,5.255C-73.992-397.163-76.402-394.84-79.361-394.855z"/>
		<path id="path7078" inkscape:connector-curvature="0" fill="#FFFFFF" d="M-62.05-399.544c-3.941-0.021-7.156,3.076-7.179,6.924
			c-0.021,3.844,3.158,6.98,7.099,7.003c3.942,0.021,7.153-3.081,7.176-6.925C-54.934-396.39-58.109-399.523-62.05-399.544
			L-62.05-399.544z M-62.119-387.359c-2.956-0.018-5.34-2.369-5.324-5.252c0.016-2.886,2.425-5.207,5.381-5.192
			c2.955,0.018,5.342,2.368,5.325,5.254C-56.752-389.668-59.164-387.341-62.119-387.359L-62.119-387.359z"/>
		<path id="path7080" inkscape:connector-curvature="0" fill="#FFFFFF" d="M-59.279-405.343c-0.031-0.007-0.061,0-0.087,0
			c0.269,0.586,0.211,1.211-0.194,1.514c-0.371,0.281-0.92,0.209-1.388-0.126l-7.228-0.672l-4.435-0.404l-0.329-0.031
			c-0.024-0.002-0.05,0.002-0.079,0.002c-0.064-0.008-0.132,0-0.183,0.04l-6.227,4.626l-0.071-0.005
			c-0.068-0.005-0.131,0.08-0.166,0.198c-0.068,0.078-0.074,0.198-0.024,0.313c0.022,0.14,0.081,0.242,0.157,0.244l5.264,0.227
			c0.028,0,0.051-0.011,0.078-0.03c0.039-0.002,0.078-0.002,0.123-0.018l3.776-1.041l3.412-0.941l6.281-1.732
			c0.092-0.023,0.209,0,0.209,0l-2.129,9.979c-0.057,0.27,0.148,0.536,0.467,0.606c0.316,0.067,0.617-0.091,0.674-0.36l2.559-11.778
			C-58.759-405.002-58.966-405.274-59.279-405.343L-59.279-405.343z M-66.763-402.202l-3.238,0.893l-4.186,1.155
			c-0.018-0.009-0.03-0.018-0.048-0.02l-4.09-0.177l5.403-4.016l0.989,0.094l4.434,0.41l5.063,0.466L-66.763-402.202
			L-66.763-402.202z"/>
		<g id="g7082">
			<path id="path7084" inkscape:connector-curvature="0" fill="#FFFFFF" d="M-71.875-396.091c-0.299,0.832,0.07,1.724,0.82,1.99
				c0.75,0.272,1.598-0.185,1.897-1.013l2.278-6.336l-3.412,0.941L-71.875-396.091L-71.875-396.091z"/>
			<path id="path7086" inkscape:connector-curvature="0" fill="#FFFFFF" d="M-67.205-403.531l-0.293-0.331l-4.434-0.41l2.135,2.401
				l-0.205,0.562l3.238-0.893c-0.003-0.046,0.002-0.094-0.003-0.138C-66.754-402.754-66.895-403.182-67.205-403.531z"/>
			<path id="path7088" inkscape:connector-curvature="0" fill="#FFFFFF" d="M-59.366-405.343c-0.063-0.134-0.134-0.262-0.226-0.388
				l-5.672-7.528c-0.507-0.678-1.322-0.928-1.816-0.554c-0.225,0.172-1.902,1.104-2.699,1.578l-2.111,1.25
				c-1.252,0.741-2.105,1.768-2.373,2.702c-0.236,0.544-0.135,1.235,0.316,1.743l1.338,1.508l4.434,0.404l-1.898-2.13
				c0.179-0.085,0.354-0.171,0.523-0.271l2.113-1.253c0.803-0.473,1.432-1.067,1.859-1.675l4.199,5.575
				c0.129,0.167,0.272,0.313,0.431,0.425c0.468,0.335,1.017,0.407,1.388,0.126C-59.155-404.133-59.099-404.758-59.366-405.343
				L-59.366-405.343z"/>
		</g>
	</g>
</g>
</svg>
