<?xml version="1.0" encoding="UTF-8" standalone="no"?>
<!-- Created with Inkscape (http://www.inkscape.org/) -->

<svg
   xmlns:dc="http://purl.org/dc/elements/1.1/"
   xmlns:cc="http://creativecommons.org/ns#"
   xmlns:rdf="http://www.w3.org/1999/02/22-rdf-syntax-ns#"
   xmlns:svg="http://www.w3.org/2000/svg"
   xmlns="http://www.w3.org/2000/svg"
   xmlns:sodipodi="http://sodipodi.sourceforge.net/DTD/sodipodi-0.dtd"
   xmlns:inkscape="http://www.inkscape.org/namespaces/inkscape"
   width="51"
   height="51"
   id="svg9780"
   version="1.1"
   inkscape:version="0.48.4 r"
   sodipodi:docname="directions_bridle.svg">
  <defs
     id="defs9782" />
  <sodipodi:namedview
     id="base"
     pagecolor="#ffffff"
     bordercolor="#666666"
     borderopacity="1.0"
     inkscape:pageopacity="0.0"
     inkscape:pageshadow="2"
     inkscape:zoom="2.8"
     inkscape:cx="28.176217"
     inkscape:cy="11.847323"
     inkscape:document-units="px"
     inkscape:current-layer="layer1"
     showgrid="false"
     fit-margin-top="0"
     fit-margin-left="0"
     fit-margin-right="0"
     fit-margin-bottom="0"
     inkscape:window-width="484"
     inkscape:window-height="480"
     inkscape:window-x="1386"
     inkscape:window-y="482"
     inkscape:window-maximized="0" />
  <metadata
     id="metadata9785">
    <rdf:RDF>
      <cc:Work
         rdf:about="">
        <dc:format>image/svg+xml</dc:format>
        <dc:type
           rdf:resource="http://purl.org/dc/dcmitype/StillImage" />
        <dc:title></dc:title>
      </cc:Work>
    </rdf:RDF>
  </metadata>
  <g
     inkscape:label="Layer 1"
     inkscape:groupmode="layer"
     id="layer1"
     transform="translate(-613.59866,-566.03759)">
    <g
       id="g7660"
       transform="translate(255.37991,83.475094)">
      <path
         style="fill:#efe7ce;stroke:#000000;stroke-miterlimit:10"
         inkscape:connector-curvature="0"
         id="path6492"
         d="m 408.70839,518.3132 c 0,8.153 -5.886,14.762 -13.147,14.762 l -23.706,0 c -7.261,0 -13.147,-6.608 -13.147,-14.762 l 0,-20.477 c 0,-8.153 5.886,-14.762 13.147,-14.762 l 23.706,0 c 7.261,0 13.147,6.608 13.147,14.762 l 0,20.477 z"
         stroke-miterlimit="10" />
      <g
         transform="translate(280.67696,424.67295)"
         id="g6519">
        <path
           style="fill-rule:evenodd"
           inkscape:connector-curvature="0"
           id="path6521"
           d="m 101.406,76.705 c 0,0.708 -0.016,1.358 0.015,2.007 0.005,0.105 0.212,0.289 0.328,0.291 1.126,0.022 2.254,0.03 3.379,-0.001 0.197,-0.005 0.426,-0.181 0.577,-0.337 3.314,-3.417 6.621,-6.842 9.925,-10.27 0.135,-0.139 0.228,-0.32 0.339,-0.482 0.061,0.037 0.123,0.075 0.184,0.113 -0.075,0.689 -0.125,1.384 -0.233,2.069 -0.072,0.454 0.056,0.722 0.452,0.978 1.649,1.062 3.287,2.144 4.902,3.256 1.221,0.841 1.13,2.581 -0.173,3.161 -0.437,0.194 -0.974,0.167 -1.578,0.257 0.002,-0.006 -0.068,0.117 -0.116,0.248 -0.821,2.25 -2.953,3.514 -5.299,3.109 -0.351,-0.059 -0.518,0.029 -0.671,0.346 -1.209,2.502 -2.441,4.992 -3.648,7.496 -0.121,0.249 -0.176,0.553 -0.177,0.832 -0.012,3.508 -0.004,7.016 -0.015,10.523 -10e-4,0.339 -0.034,0.699 -0.154,1.012 -0.281,0.727 -1.089,1.143 -1.863,1.021 -0.76,-0.12 -1.351,-0.722 -1.449,-1.493 -0.028,-0.215 -0.022,-0.436 -0.022,-0.652 -10e-4,-3.473 -10e-4,-6.943 -10e-4,-10.414 0,-0.217 0,-0.432 0,-0.71 -0.206,-0.015 -0.378,-0.037 -0.551,-0.037 -2.635,-0.003 -5.271,0.005 -7.905,-0.011 -0.356,-0.002 -0.563,0.105 -0.732,0.422 -0.333,0.623 -0.685,1.241 -1.071,1.834 -0.226,0.344 -0.231,0.631 -0.072,1.006 1.063,2.488 2.118,4.98 3.134,7.489 0.16,0.394 0.206,0.894 0.127,1.311 -0.137,0.723 -0.806,1.198 -1.54,1.249 -0.737,0.051 -1.415,-0.359 -1.727,-1.088 -0.745,-1.735 -1.491,-3.471 -2.208,-5.217 -0.847,-2.065 -2.122,-4.025 -1.499,-6.468 -0.076,-0.007 -0.152,-0.015 -0.229,-0.023 -0.233,0.366 -0.433,0.759 -0.706,1.091 -0.775,0.951 -1.004,2.008 -0.958,3.231 0.084,2.231 0.037,4.47 0.017,6.705 -0.012,1.325 -1.242,2.157 -2.413,1.653 -0.658,-0.283 -1.059,-0.805 -1.063,-1.519 -0.021,-3.235 -0.019,-6.47 10e-4,-9.704 0.001,-0.244 0.162,-0.523 0.325,-0.723 0.92,-1.123 1.235,-2.377 1.138,-3.833 -0.107,-1.61 -0.024,-3.233 -0.024,-4.851 0,-0.195 0,-0.391 0,-0.586 -0.048,-0.013 -0.096,-0.025 -0.144,-0.039 -0.5,0.987 -1.441,1.711 -1.348,3.047 0.112,1.592 0.026,3.196 0.026,4.796 0,0.177 0,0.354 0,0.563 -0.932,0 -1.811,0 -2.731,0 -0.01,-0.228 -0.026,-0.421 -0.026,-0.615 -0.002,-1.854 -0.005,-3.708 0,-5.562 0.006,-2.518 1.646,-4.162 4.161,-4.167 2.417,-0.005 4.834,-0.001 7.251,-0.001 0.216,0 0.432,0 0.712,0 0.014,-0.25 0.033,-0.459 0.034,-0.667 0.003,-1.745 -0.024,-3.49 0.011,-5.233 0.038,-1.879 1.708,-3.098 3.45,-2.563 1.125,0.346 1.874,1.355 1.832,2.668 -0.021,0.651 0.205,0.875 0.802,0.997 1.031,0.212 2.047,0.497 3.063,0.771 0.79,0.213 1.207,0.837 1.055,1.53 -0.158,0.724 -0.821,1.117 -1.649,0.938 -1.06,-0.23 -2.115,-0.489 -3.245,-0.754 z m 12.727,3.372 c 1.764,0.631 4.203,-0.887 4.359,-2.682 -0.811,-0.156 -1.625,-0.319 -2.444,-0.461 -0.119,-0.021 -0.329,0.026 -0.372,0.107 -0.526,1.003 -1.03,2.019 -1.543,3.036 z" />
        <path
           style="fill-rule:evenodd"
           inkscape:connector-curvature="0"
           id="path6523"
           d="m 101.43,67.16 c -0.031,1.45 -1.235,2.601 -2.691,2.569 -1.454,-0.029 -2.602,-1.225 -2.575,-2.682 0.027,-1.463 1.217,-2.627 2.661,-2.604 1.476,0.023 2.637,1.235 2.605,2.717 z" />
      </g>
    </g>
  </g>
</svg>
