<?xml version="1.0" encoding="utf-8"?>
<!-- Generator: Adobe Illustrator 16.0.0, SVG Export Plug-In . SVG Version: 6.00 Build 0)  -->
<!DOCTYPE svg PUBLIC "-//W3C//DTD SVG 1.1//EN" "http://www.w3.org/Graphics/SVG/1.1/DTD/svg11.dtd">
<svg version="1.1"
	 id="svg9780" xmlns:sodipodi="http://sodipodi.sourceforge.net/DTD/sodipodi-0.dtd" xmlns:inkscape="http://www.inkscape.org/namespaces/inkscape" xmlns:cc="http://creativecommons.org/ns#" xmlns:dc="http://purl.org/dc/elements/1.1/" xmlns:svg="http://www.w3.org/2000/svg" xmlns:rdf="http://www.w3.org/1999/02/22-rdf-syntax-ns#" inkscape:version="0.48.4 r" sodipodi:docname="directions_bridle.svg"
	 xmlns="http://www.w3.org/2000/svg" xmlns:xlink="http://www.w3.org/1999/xlink" x="0px" y="0px" width="51px" height="51px"
	 viewBox="0 0 51 51" enable-background="new 0 0 51 51" xml:space="preserve">
<path id="path6492_1_" inkscape:connector-curvature="0" opacity="0.5" enable-background="new    " d="M50.632,36.158
	c0,8.035-5.802,14.549-12.957,14.549H14.312c-7.156,0-12.957-6.514-12.957-14.549v-20.18c0-8.035,5.801-14.548,12.957-14.548h23.363
	c7.155,0,12.957,6.512,12.957,14.548V36.158z"/>
<sodipodi:namedview  id="base" fit-margin-left="0" fit-margin-top="0" fit-margin-bottom="0" inkscape:document-units="px" fit-margin-right="0" inkscape:window-width="484" inkscape:window-height="480" inkscape:window-maximized="0" inkscape:pageopacity="0.0" inkscape:window-y="482" inkscape:current-layer="layer1" inkscape:window-x="1386" inkscape:pageshadow="2" bordercolor="#666666" inkscape:cx="28.176217" borderopacity="1.0" pagecolor="#ffffff" inkscape:cy="11.847323" showgrid="false" inkscape:zoom="2.8">
	</sodipodi:namedview>
<path id="path6492" inkscape:connector-curvature="0" fill="#004E41" d="M49.646,35.172c0,8.036-5.803,14.549-12.957,14.549H13.325
	c-7.156,0-12.957-6.513-12.957-14.549v-20.18c0-8.035,5.8-14.548,12.957-14.548h23.362c7.155,0,12.957,6.512,12.957,14.548v20.18
	H49.646z"/>
<g id="g6519" transform="translate(280.67696,424.67295)">
	<path id="path6521" inkscape:connector-curvature="0" fill="#FFFFFF" d="M-257.272-406.191c0,0.698-0.016,1.338,0.015,1.978
		c0.004,0.104,0.208,0.285,0.323,0.287c1.109,0.022,2.221,0.03,3.329-0.001c0.195-0.004,0.421-0.178,0.57-0.332
		c3.266-3.367,6.524-6.743,9.78-10.121c0.134-0.137,0.226-0.315,0.335-0.475c0.061,0.037,0.121,0.074,0.182,0.112
		c-0.074,0.679-0.123,1.364-0.229,2.039c-0.071,0.447,0.056,0.711,0.444,0.964c1.625,1.046,3.24,2.113,4.832,3.208
		c1.203,0.829,1.113,2.543-0.172,3.115c-0.431,0.191-0.959,0.165-1.555,0.253c0.002-0.006-0.066,0.115-0.113,0.244
		c-0.81,2.217-2.912,3.463-5.224,3.064c-0.347-0.058-0.51,0.029-0.662,0.341c-1.19,2.465-2.405,4.919-3.595,7.387
		c-0.118,0.245-0.173,0.545-0.174,0.82c-0.012,3.457-0.004,6.914-0.016,10.371c0,0.332-0.033,0.688-0.151,0.996
		c-0.276,0.717-1.072,1.127-1.837,1.006c-0.748-0.118-1.33-0.711-1.428-1.471c-0.027-0.213-0.021-0.431-0.021-0.645
		c-0.001-3.422-0.001-6.842-0.001-10.262c0-0.215,0-0.428,0-0.7c-0.203-0.015-0.373-0.036-0.543-0.036
		c-2.597-0.003-5.195,0.005-7.791-0.012c-0.351-0.002-0.555,0.104-0.721,0.416c-0.328,0.613-0.675,1.224-1.056,1.808
		c-0.223,0.34-0.228,0.622-0.071,0.992c1.047,2.45,2.087,4.907,3.088,7.381c0.158,0.388,0.203,0.88,0.125,1.291
		c-0.135,0.713-0.794,1.181-1.518,1.231c-0.726,0.049-1.395-0.354-1.702-1.072c-0.734-1.71-1.47-3.422-2.176-5.143
		c-0.835-2.035-2.092-3.967-1.478-6.373c-0.075-0.009-0.15-0.017-0.226-0.023c-0.23,0.359-0.427,0.748-0.696,1.074
		c-0.764,0.938-0.99,1.979-0.944,3.186c0.083,2.198,0.036,4.405,0.017,6.607c-0.012,1.306-1.225,2.125-2.378,1.629
		c-0.648-0.278-1.043-0.793-1.047-1.496c-0.021-3.188-0.019-6.376,0.001-9.563c0.001-0.24,0.159-0.517,0.32-0.713
		c0.907-1.107,1.217-2.343,1.122-3.779c-0.105-1.586-0.023-3.185-0.023-4.779c0-0.192,0-0.385,0-0.578
		c-0.048-0.012-0.095-0.024-0.142-0.039c-0.493,0.973-1.42,1.687-1.329,3.002c0.111,1.57,0.025,3.15,0.025,4.727
		c0,0.177,0,0.351,0,0.557c-0.918,0-1.785,0-2.691,0c-0.009-0.225-0.025-0.415-0.025-0.605c-0.002-1.828-0.005-3.654,0-5.481
		c0.006-2.481,1.622-4.102,4.101-4.106c2.382-0.005,4.764-0.001,7.146-0.001c0.212,0,0.426,0,0.702,0
		c0.014-0.247,0.033-0.452,0.034-0.657c0.003-1.72-0.024-3.439,0.01-5.157c0.038-1.852,1.684-3.053,3.4-2.526
		c1.109,0.341,1.847,1.335,1.806,2.629c-0.021,0.641,0.202,0.862,0.79,0.982c1.016,0.209,2.019,0.49,3.019,0.76
		c0.778,0.21,1.189,0.825,1.039,1.508c-0.156,0.713-0.809,1.101-1.625,0.924C-255.119-405.674-256.158-405.929-257.272-406.191z
		 M-244.73-402.868c1.738,0.622,4.144-0.874,4.296-2.643c-0.8-0.153-1.603-0.314-2.409-0.454c-0.117-0.021-0.323,0.025-0.365,0.105
		C-243.727-404.871-244.224-403.87-244.73-402.868z"/>
	<path id="path6523" inkscape:connector-curvature="0" fill="#FFFFFF" d="M-257.249-415.597c-0.03,1.429-1.217,2.563-2.652,2.531
		c-1.433-0.028-2.564-1.207-2.538-2.643c0.027-1.442,1.2-2.589,2.623-2.566C-258.361-418.252-257.217-417.058-257.249-415.597z"/>
</g>
</svg>
