<?xml version="1.0" encoding="UTF-8" standalone="no"?>
<!-- Created with Inkscape (http://www.inkscape.org/) -->

<svg
   xmlns:dc="http://purl.org/dc/elements/1.1/"
   xmlns:cc="http://creativecommons.org/ns#"
   xmlns:rdf="http://www.w3.org/1999/02/22-rdf-syntax-ns#"
   xmlns:svg="http://www.w3.org/2000/svg"
   xmlns="http://www.w3.org/2000/svg"
   xmlns:sodipodi="http://sodipodi.sourceforge.net/DTD/sodipodi-0.dtd"
   xmlns:inkscape="http://www.inkscape.org/namespaces/inkscape"
   width="66.875"
   height="30.9375"
   id="svg9780"
   version="1.1"
   inkscape:version="0.48.4 r"
   sodipodi:docname="trailfinder_distance3_off.svg">
  <defs
     id="defs9782" />
  <sodipodi:namedview
     id="base"
     pagecolor="#ffffff"
     bordercolor="#666666"
     borderopacity="1.0"
     inkscape:pageopacity="0.0"
     inkscape:pageshadow="2"
     inkscape:zoom="2.8"
     inkscape:cx="50.643635"
     inkscape:cy="-3.6828407"
     inkscape:document-units="px"
     inkscape:current-layer="layer1"
     showgrid="false"
     fit-margin-top="0"
     fit-margin-left="0"
     fit-margin-right="0"
     fit-margin-bottom="0"
     inkscape:window-width="484"
     inkscape:window-height="480"
     inkscape:window-x="1386"
     inkscape:window-y="482"
     inkscape:window-maximized="0" />
  <metadata
     id="metadata9785">
    <rdf:RDF>
      <cc:Work
         rdf:about="">
        <dc:format>image/svg+xml</dc:format>
        <dc:type
           rdf:resource="http://purl.org/dc/dcmitype/StillImage" />
        <dc:title></dc:title>
      </cc:Work>
    </rdf:RDF>
  </metadata>
  <g
     inkscape:label="Layer 1"
     inkscape:groupmode="layer"
     id="layer1"
     transform="translate(-628.86158,-557.35156)">
    <g
       id="g6069"
       transform="translate(611.36158,489.03906)">
      <g
         id="g6061">
        <path
           style="fill:#efe7ce;stroke:#000000;stroke-width:1;stroke-miterlimit:10;stroke-dasharray:none"
           inkscape:connector-curvature="0"
           id="path1652"
           d="M 76.014066,68.800848 H 64.032337 61.812123 52.050609 49.830394 40.06888 37.848666 25.866937 c -4.349966,0 -7.876189,3.958763 -7.876189,8.843713 v 12.267493 c 0,4.884353 3.526223,8.84372 7.876189,8.84372 h 11.981729 2.220214 9.761514 2.220215 9.761514 2.220214 11.981729 c 4.349966,0 7.87559,-3.958768 7.87559,-8.84372 V 77.644561 c 0,-4.88495 -3.526223,-8.843713 -7.87559,-8.843713 z"
           stroke-miterlimit="10" />
        <path
           d="m 29.136743,89.55739 v -0.939967 l 1.201169,-1.166421 c 2.889992,-2.749807 4.196001,-4.212776 4.213374,-5.918974 0,-1.149047 -0.55715,-2.210629 -2.245975,-2.210629 -1.026834,0 -1.879933,0.522404 -2.402336,0.957341 l -0.487057,-1.078955 c 0.783006,-0.661991 1.897306,-1.149647 3.203315,-1.149647 2.437083,0 3.463917,1.671451 3.463917,3.291381 0,2.088415 -1.51449,3.77724 -3.898854,6.075934 l -0.90522,0.835726 v 0.03475 h 5.083249 v 1.270662 h -7.225582 z"
           id="path1774"
           inkscape:connector-curvature="0"
           style="fill:#231f20" />
        <path
           d="m 42.105766,84.283033 v 1.131075 h -4.300242 v -1.131075 h 4.300242 z"
           id="path1776"
           inkscape:connector-curvature="0"
           style="fill:#231f20" />
        <path
           d="m 50.165875,79.529882 h -4.317616 l -0.435536,2.907366 c 0.261801,-0.03535 0.50503,-0.06889 0.923192,-0.06889 0.870473,0 1.740346,0.191109 2.437084,0.609271 0.888445,0.50503 1.61933,1.479743 1.61933,2.907366 0,2.210629 -1.758318,3.864707 -4.212775,3.864707 -1.236515,0 -2.280722,-0.348069 -2.820499,-0.696139 l 0.383415,-1.166421 c 0.469684,0.279174 1.392876,0.627244 2.41971,0.627244 1.444997,0 2.680912,-0.940566 2.680912,-2.455057 -0.01677,-1.46237 -0.992087,-2.506577 -3.255436,-2.506577 -0.644617,0 -1.149047,0.06889 -1.56721,0.121614 l 0.730886,-5.431916 h 5.414543 v 1.287437 z"
           id="path1778"
           inkscape:connector-curvature="0"
           style="fill:#231f20" />
        <path
           d="m 56.519186,83.412561 c 0,-0.870473 -0.01797,-1.583985 -0.07009,-2.281321 h 1.340756 l 0.06949,1.358728 h 0.05212 c 0.469684,-0.800979 1.253289,-1.549837 2.645566,-1.549837 1.149647,0 2.020119,0.696737 2.384963,1.688825 h 0.03535 c 0.261202,-0.470283 0.591298,-0.835726 0.939367,-1.096928 0.505629,-0.382816 1.062181,-0.591897 1.863159,-0.591897 1.114301,0 2.768379,0.731484 2.768379,3.656224 v 4.961634 h -1.497717 v -4.769926 c 0,-1.619331 -0.591298,-2.594044 -1.827812,-2.594044 -0.870473,0 -1.549238,0.644617 -1.810439,1.392876 -0.06949,0.209081 -0.122214,0.487057 -0.122214,0.765632 v 5.204863 h -1.496518 v -5.048501 c 0,-1.340756 -0.591897,-2.315469 -1.757719,-2.315469 -0.95794,0 -1.654677,0.765632 -1.898505,1.531864 -0.08687,0.227053 -0.121615,0.487057 -0.121615,0.748858 v 5.083248 h -1.496518 v -6.144829 z"
           id="path1780"
           inkscape:connector-curvature="0"
           style="fill:#231f20" />
        <path
           d="m 72.743645,78.764249 c 0.01737,0.522403 -0.365443,0.940566 -0.974714,0.940566 -0.539777,0 -0.922593,-0.418163 -0.922593,-0.940566 0,-0.539777 0.400789,-0.957939 0.957939,-0.957939 0.573326,0 0.939368,0.417563 0.939368,0.957939 z M 71.037447,89.55739 v -8.42615 h 1.531864 v 8.42615 h -1.531864 z"
           id="path1782"
           inkscape:connector-curvature="0"
           style="fill:#231f20" />
      </g>
    </g>
  </g>
</svg>
