<?xml version="1.0" encoding="UTF-8" standalone="no"?>
<!-- Created with Inkscape (http://www.inkscape.org/) -->

<svg
   xmlns:dc="http://purl.org/dc/elements/1.1/"
   xmlns:cc="http://creativecommons.org/ns#"
   xmlns:rdf="http://www.w3.org/1999/02/22-rdf-syntax-ns#"
   xmlns:svg="http://www.w3.org/2000/svg"
   xmlns="http://www.w3.org/2000/svg"
   xmlns:sodipodi="http://sodipodi.sourceforge.net/DTD/sodipodi-0.dtd"
   xmlns:inkscape="http://www.inkscape.org/namespaces/inkscape"
   width="66.90625"
   height="30.9375"
   id="svg9780"
   version="1.1"
   inkscape:version="0.48.4 r"
   sodipodi:docname="trailfinder_mtnbike_on.svg">
  <defs
     id="defs9782" />
  <sodipodi:namedview
     id="base"
     pagecolor="#ffffff"
     bordercolor="#666666"
     borderopacity="1.0"
     inkscape:pageopacity="0.0"
     inkscape:pageshadow="2"
     inkscape:zoom="1.979899"
     inkscape:cx="47.347536"
     inkscape:cy="-4.1410914"
     inkscape:document-units="px"
     inkscape:current-layer="layer1"
     showgrid="false"
     fit-margin-top="0"
     fit-margin-left="0"
     fit-margin-right="0"
     fit-margin-bottom="0"
     inkscape:window-width="484"
     inkscape:window-height="480"
     inkscape:window-x="1386"
     inkscape:window-y="482"
     inkscape:window-maximized="0" />
  <metadata
     id="metadata9785">
    <rdf:RDF>
      <cc:Work
         rdf:about="">
        <dc:format>image/svg+xml</dc:format>
        <dc:type
           rdf:resource="http://purl.org/dc/dcmitype/StillImage" />
        <dc:title></dc:title>
      </cc:Work>
    </rdf:RDF>
  </metadata>
  <g
     inkscape:label="Layer 1"
     inkscape:groupmode="layer"
     id="layer1"
     transform="translate(-697.6887,-570.08131)">
    <g
       id="g6025"
       transform="translate(751.3137,498.86256)">
      <g
         id="g6017">
        <path
           style="fill:#efe7ce;stroke:#000000;stroke-width:1;stroke-miterlimit:10;stroke-dasharray:none"
           inkscape:connector-curvature="0"
           id="path1151"
           d="m 4.9107438,71.70933 h -11.98173 -2.22021 -9.7615198 -2.22021 -9.76151 -2.22022 -11.98173 c -4.34996,0 -7.87619,3.958763 -7.87619,8.843713 v 12.267493 c 0,4.884353 3.52623,8.843714 7.87619,8.843714 h 11.98173 2.22022 9.76151 2.22021 9.7615198 2.22021 11.98173 c 4.34997,0 7.8761922,-3.958762 7.8761922,-8.843714 V 80.553043 c 0,-4.884351 -3.5262222,-8.843713 -7.8761922,-8.843713 z"
           stroke-miterlimit="10" />
        <path
           d="m -34.367166,86.686491 c 0,3.847932 -1.428222,5.971694 -3.9342,5.971694 -2.210629,0 -3.707746,-2.07224 -3.743092,-5.815332 0,-3.794613 1.636704,-5.883628 3.9342,-5.883628 2.385563,0 3.743092,2.123762 3.743092,5.727266 z m -6.145428,0.173735 c 0,2.942713 0.905219,4.613565 2.298095,4.613565 1.566611,0 2.315469,-1.827813 2.315469,-4.717806 0,-2.785152 -0.713512,-4.613564 -2.298694,-4.613564 -1.340157,0 -2.31487,1.637303 -2.31487,4.717805 z"
           id="path1762"
           inkscape:connector-curvature="0"
           style="fill:#231f20" />
        <path
           d="m -28.918475,87.190922 v 1.132273 h -4.300242 v -1.132273 h 4.300242 z"
           id="path1764"
           inkscape:connector-curvature="0"
           style="fill:#231f20" />
        <path
           d="m -27.613664,92.466477 v -0.939966 l 1.201767,-1.166422 c 2.889993,-2.750405 4.195402,-4.212775 4.212776,-5.918974 0,-1.148448 -0.557151,-2.210628 -2.245376,-2.210628 -1.027433,0 -1.881132,0.522403 -2.402936,0.957939 l -0.487057,-1.080153 c 0.783605,-0.661391 1.897307,-1.148449 3.203315,-1.148449 2.437083,0 3.463918,1.670852 3.463918,3.289584 0,2.089613 -1.513892,3.778438 -3.900053,6.075934 l -0.90462,0.836325 v 0.03535 h 5.083248 v 1.270662 h -7.224982 z"
           id="path1766"
           inkscape:connector-curvature="0"
           style="fill:#231f20" />
        <path
           d="m -14.505054,86.321049 c 0,-0.870473 -0.01737,-1.584584 -0.07009,-2.280722 h 1.340756 l 0.06949,1.358129 h 0.05212 c 0.469684,-0.800979 1.253289,-1.549837 2.646165,-1.549837 1.1496469,0 2.0195204,0.696138 2.3849631,1.688825 h 0.035346 c 0.2612017,-0.470283 0.5912983,-0.836325 0.9393675,-1.096928 0.505629,-0.382816 1.0615812,-0.591897 1.8625597,-0.591897 1.1143007,0 2.7683783,0.731485 2.7683783,3.656824 v 4.961034 h -1.497716 v -4.769926 c 0,-1.619331 -0.5906992,-2.594044 -1.8278127,-2.594044 -0.8704725,0 -1.5498365,0.644018 -1.8104391,1.392876 -0.069494,0.208482 -0.1216146,0.487057 -0.1216146,0.765632 v 5.204863 h -1.4971169 v -5.048501 c 0,-1.340756 -0.5918974,-2.315469 -1.7583183,-2.315469 -0.957939,0 -1.654677,0.765632 -1.898505,1.532463 -0.08687,0.225855 -0.121615,0.487057 -0.121615,0.748259 v 5.083248 h -1.496518 v -6.144829 z"
           id="path1768"
           inkscape:connector-curvature="0"
           style="fill:#231f20" />
        <path
           d="m 1.7188049,81.672737 c 0.017973,0.521804 -0.3654428,0.939368 -0.97471364,0.939368 -0.53917778,0 -0.921994,-0.417564 -0.921994,-0.939368 0,-0.539178 0.40018972,-0.957939 0.95734009,-0.957939 0.57332575,5.99e-4 0.93936755,0.418761 0.93936755,0.957939 z M 0.01260674,92.466477 V 84.040926 H 1.5450698 v 8.425551 H 0.01260674 z"
           id="path1770"
           inkscape:connector-curvature="0"
           style="fill:#231f20" />
      </g>
    </g>
  </g>
</svg>
