<?xml version="1.0" encoding="utf-8"?>
<!-- Generator: Adobe Illustrator 16.0.0, SVG Export Plug-In . SVG Version: 6.00 Build 0)  -->
<!DOCTYPE svg PUBLIC "-//W3C//DTD SVG 1.1//EN" "http://www.w3.org/Graphics/SVG/1.1/DTD/svg11.dtd">
<svg version="1.1"
	 id="svg9780" xmlns:sodipodi="http://sodipodi.sourceforge.net/DTD/sodipodi-0.dtd" xmlns:inkscape="http://www.inkscape.org/namespaces/inkscape" xmlns:cc="http://creativecommons.org/ns#" xmlns:dc="http://purl.org/dc/elements/1.1/" xmlns:svg="http://www.w3.org/2000/svg" xmlns:rdf="http://www.w3.org/1999/02/22-rdf-syntax-ns#" inkscape:version="0.48.4 r" sodipodi:docname="trailfinder_mtnbike_on.svg"
	 xmlns="http://www.w3.org/2000/svg" xmlns:xlink="http://www.w3.org/1999/xlink" x="0px" y="0px" width="66.906px"
	 height="30.938px" viewBox="0 0 66.906 30.938" enable-background="new 0 0 66.906 30.938" xml:space="preserve">
<path id="path1151_1_" inkscape:connector-curvature="0" fill="#FFFFFF" fill-opacity="0" d="M59.148,1.437H47.35h-2.188h-9.615
	h-2.186h-9.614H21.56H9.76c-4.284,0-7.757,3.898-7.757,8.71v12.082c0,4.813,3.473,8.709,7.757,8.709h11.8h2.187h9.614h2.186h9.615
	h2.188h11.799c4.283,0,7.761-3.896,7.761-8.709V10.147C66.906,5.336,63.432,1.437,59.148,1.437L59.148,1.437z"/>
<sodipodi:namedview  id="base" fit-margin-left="0" fit-margin-top="0" fit-margin-bottom="0" inkscape:document-units="px" fit-margin-right="0" inkscape:window-width="484" inkscape:window-height="480" inkscape:window-maximized="0" inkscape:pageopacity="0.0" inkscape:window-y="482" inkscape:current-layer="layer1" inkscape:window-x="1386" inkscape:pageshadow="2" bordercolor="#666666" inkscape:cx="47.347536" borderopacity="1.0" pagecolor="#ffffff" inkscape:cy="-4.1410914" showgrid="false" inkscape:zoom="1.979899">
	</sodipodi:namedview>
<path id="path1151" inkscape:connector-curvature="0" fill="#6CB13D" d="M57.414,0.292H45.615h-2.188h-9.612h-2.187h-9.614h-2.187
	h-11.8c-4.284,0-7.757,3.896-7.757,8.71v12.083c0,4.811,3.473,8.709,7.757,8.709h11.8h2.187h9.614h2.187h9.612h2.188h11.799
	c4.285,0,7.758-3.898,7.758-8.709V9.001C65.172,4.191,61.699,0.292,57.414,0.292L57.414,0.292z"/>
<g enable-background="new    ">
	<path fill="#FFFFFF" d="M15.544,21.333V10.874c-0.166,0.2-0.4,0.355-0.703,0.465c-0.303,0.11-0.601,0.165-0.894,0.165v-1.458
		c0.415-0.059,0.81-0.227,1.183-0.505c0.374-0.278,0.658-0.646,0.854-1.106h1.523v12.898H15.544z"/>
	<path fill="#FFFFFF" d="M24.499,20.564c-0.462,0.615-1.203,0.924-2.223,0.924s-1.761-0.309-2.223-0.924
		c-0.461-0.615-0.692-1.518-0.692-2.709v-6.16c0-1.133,0.233-1.983,0.7-2.553c0.466-0.568,1.205-0.854,2.215-0.854
		s1.749,0.285,2.215,0.854c0.466,0.569,0.7,1.42,0.7,2.553v6.16C25.19,19.046,24.959,19.948,24.499,20.564z M22.257,19.795
		c0.31,0,0.549-0.121,0.718-0.362c0.168-0.242,0.252-0.756,0.252-1.542v-6.276c-0.005-0.953-0.227-1.487-0.667-1.604
		c-0.088-0.02-0.229-0.029-0.421-0.029c-0.193,0-0.379,0.095-0.557,0.286c-0.179,0.189-0.268,0.637-0.268,1.34v6.284
		c0,0.801,0.079,1.318,0.238,1.553C21.712,19.678,21.947,19.795,22.257,19.795z"/>
	<path fill="#FFFFFF" d="M28.289,18.249v-1.706h-1.597v-1.296h1.597v-1.692h1.333v1.692h1.604v1.296h-1.604v1.706H28.289z"/>
	<path fill="#FFFFFF" d="M42.798,21.333v-8.438c0-0.728-0.247-1.092-0.74-1.092c-0.298,0-0.527,0.104-0.688,0.309
		s-0.241,0.5-0.241,0.886v8.335h-1.941v-8.452c0-0.718-0.239-1.077-0.718-1.077c-0.317,0-0.556,0.121-0.714,0.363
		c-0.159,0.241-0.238,0.553-0.238,0.934v8.232h-1.94V10.347h1.94v1.193c0.112-0.41,0.315-0.733,0.608-0.97
		c0.293-0.237,0.676-0.355,1.149-0.355c0.811,0,1.353,0.369,1.626,1.106c0.396-0.737,1.019-1.106,1.868-1.106
		c0.688,0,1.188,0.229,1.498,0.688c0.31,0.459,0.465,1.131,0.465,2.014v8.416H42.798z"/>
	<path fill="#FFFFFF" d="M46.606,9.336V7.652h1.955v1.685H46.606z M46.628,21.333V10.347h1.941v10.986H46.628z"/>
</g>
</svg>
